<svg viewBox="0 0 900 700" xmlns="http://www.w3.org/2000/svg" role="img" aria-label="Flying helicopter SVG illustration" width="100%" height="auto">
  <defs>
    <!-- Gradients -->
    <linearGradient id="bodyGrad" x1="0" y1="0" x2="0" y2="1">
      <stop offset="0%" stop-color="#f0f4f8"/>
      <stop offset="40%" stop-color="#c8d0da"/>
      <stop offset="100%" stop-color="#8898a8"/>
    </linearGradient>
    <linearGradient id="bodySideGrad" x1="0" y1="0" x2="1" y2="1">
      <stop offset="0%" stop-color="#b0bcc8"/>
      <stop offset="100%" stop-color="#6a7a8a"/>
    </linearGradient>
    <linearGradient id="redStripe" x1="0" y1="0" x2="0" y2="1">
      <stop offset="0%" stop-color="#ff5a4a"/>
      <stop offset="100%" stop-color="#b82820"/>
    </linearGradient>
    <linearGradient id="glassGrad" x1="0" y1="0" x2="1" y2="1">
      <stop offset="0%" stop-color="#a0e0ff"/>
      <stop offset="50%" stop-color="#60b8e0"/>
      <stop offset="100%" stop-color="#3090c0"/>
    </linearGradient>
    <linearGradient id="tailGrad" x1="0" y1="0" x2="1" y2="0">
      <stop offset="0%" stop-color="#c8d0da"/>
      <stop offset="100%" stop-color="#8898a8"/>
    </linearGradient>
    <linearGradient id="skyGrad" x1="0" y1="0" x2="0" y2="1">
      <stop offset="0%" stop-color="#0b1a2e"/>
      <stop offset="50%" stop-color="#1a3a5c"/>
      <stop offset="100%" stop-color="#2a6a9a"/>
    </linearGradient>
    <linearGradient id="groundGrad" x1="0" y1="0" x2="0" y2="1">
      <stop offset="0%" stop-color="#1a4a2a"/>
      <stop offset="100%" stop-color="#0a2a16"/>
    </linearGradient>
    <radialGradient id="searchlightGrad" cx="0.5" cy="0" r="0.8">
      <stop offset="0%" stop-color="#ffffcc" stop-opacity="0.8"/>
      <stop offset="100%" stop-color="#ffffcc" stop-opacity="0"/>
    </radialGradient>
    <!-- Filters -->
    <filter id="shadow" x="-20%" y="-20%" width="140%" height="140%">
      <feDropShadow dx="3" dy="6" stdDeviation="8" flood-color="#000000" flood-opacity="0.3"/>
    </filter>
    <filter id="glow" x="-50%" y="-50%" width="200%" height="200%">
      <feGaussianBlur stdDeviation="3" result="blur"/>
      <feMerge>
        <feMergeNode in="blur"/>
        <feMergeNode in="SourceGraphic"/>
      </feMerge>
    </filter>
  </defs>
  <!-- Sky background -->
  <rect width="900" height="700" fill="url(#skyGrad)"/>
  <!-- Stars -->
  <g opacity="0.6">
    <circle cx="80" cy="60" r="1.5" fill="#ffffff"/>
    <circle cx="200" cy="40" r="1" fill="#ffffff"/>
    <circle cx="350" cy="80" r="1.2" fill="#ffffff"/>
    <circle cx="500" cy="30" r="1" fill="#ffffff"/>
    <circle cx="650" cy="70" r="1.5" fill="#ffffff"/>
    <circle cx="780" cy="50" r="1" fill="#ffffff"/>
    <circle cx="120" cy="130" r="1" fill="#ffffff"/>
    <circle cx="420" cy="110" r="1.3" fill="#ffffff"/>
    <circle cx="600" cy="120" r="1" fill="#ffffff"/>
    <circle cx="830" cy="100" r="1.5" fill="#ffffff"/>
    <circle cx="50" cy="180" r="1" fill="#ffffff"/>
    <circle cx="750" cy="160" r="1.2" fill="#ffffff"/>
  </g>
  <!-- Clouds (background) -->
  <g class="cloud1" opacity="0.15">
    <ellipse cx="950" cy="180" rx="100" ry="30" fill="#ffffff"/>
    <ellipse cx="920" cy="170" rx="60" ry="22" fill="#ffffff"/>
    <ellipse cx="980" cy="170" rx="50" ry="20" fill="#ffffff"/>
  </g>
  <g class="cloud2" opacity="0.1">
    <ellipse cx="1050" cy="300" rx="120" ry="28" fill="#ffffff"/>
    <ellipse cx="1020" cy="290" rx="70" ry="20" fill="#ffffff"/>
    <ellipse cx="1090" cy="292" rx="55" ry="18" fill="#ffffff"/>
  </g>
  <g class="cloud3" opacity="0.12">
    <ellipse cx="1000" cy="450" rx="90" ry="25" fill="#ffffff"/>
    <ellipse cx="970" cy="442" rx="55" ry="18" fill="#ffffff"/>
    <ellipse cx="1030" cy="440" rx="45" ry="16" fill="#ffffff"/>
  </g>
  <!-- Ground -->
  <ellipse cx="450" cy="680" rx="500" ry="40" fill="url(#groundGrad)" opacity="0.4"/>
  <!-- ===== HELICOPTER GROUP ===== -->
  <g class="helicopter-group" filter="url(#shadow)">
    <!-- Searchlight beam -->
    <polygon points="430,420 390,580 510,580 470,420" fill="url(#searchlightGrad)" opacity="0.25"/>
    <!-- Downwash effect -->
    <g class="downwash" opacity="0.3">
      <line x1="400" y1="430" x2="380" y2="470" stroke="#ffffff" stroke-width="1" opacity="0"/>
      <line x1="440" y1="430" x2="440" y2="475" stroke="#ffffff" stroke-width="1" opacity="0"/>
      <line x1="470" y1="430" x2="490" y2="470" stroke="#ffffff" stroke-width="1" opacity="0"/>
      <line x1="420" y1="430" x2="410" y2="472" stroke="#ffffff" stroke-width="1" opacity="0"/>
    </g>
    <!-- Landing skids -->
    <g stroke="#5a6a7a" stroke-width="3" fill="none" stroke-linecap="round">
      <!-- Left skid -->
      <line x1="370" y1="405" x2="370" y2="420"/>
      <line x1="370" y1="420" x2="350" y2="425"/>
      <line x1="350" y1="425" x2="510" y2="425"/>
      <!-- Right skid -->
      <line x1="500" y1="405" x2="500" y2="420"/>
      <line x1="500" y1="420" x2="510" y2="425"/>
      <!-- Cross bars -->
      <line x1="370" y1="420" x2="500" y2="420" stroke-width="2.5"/>
      <line x1="370" y1="405" x2="500" y2="405" stroke-width="2.5"/>
    </g>
    <!-- Tail boom -->
    <path d="M530,290 C580,280 680,240 730,225 L740,230 C690,250 580,290 530,300 Z"
          fill="url(#tailGrad)" stroke="#7888a0" stroke-width="1"/>
    <!-- Tail boom red stripe -->
    <path d="M540,295 C590,285 670,248 720,232 L722,237 C670,255 590,292 540,302 Z"
          fill="url(#redStripe)" opacity="0.7"/>
    <!-- Tail fin / vertical stabilizer -->
    <path d="M720,225 L730,180 L745,185 L740,230 Z"
          fill="#c8d0da" stroke="#7888a0" stroke-width="1"/>
    <path d="M725,225 L730,195 L738,198 L735,228 Z"
          fill="url(#redStripe)" opacity="0.6"/>
    <!-- Horizontal stabilizer -->
    <path d="M710,245 L740,238 L748,242 L718,250 Z"
          fill="#b0bcc8" stroke="#7888a0" stroke-width="1"/>
    <!-- Tail rotor -->
    <g class="tail-rotor">
      <rect x="727" y="183" width="6" height="45" rx="2" fill="#4a5a6a" opacity="0.8"/>
      <rect x="724" y="183" width="12" height="5" rx="1.5" fill="#6a7a8a"/>
      <rect x="724" y="223" width="12" height="5" rx="1.5" fill="#6a7a8a"/>
    </g>
    <!-- Main fuselage / body -->
    <path d="M340,310
             C340,270 370,250 420,245
             L530,265
             C560,270 560,310 540,320
             C540,340 540,370 535,395
             C530,410 460,420 430,420
             C400,420 360,410 350,395
             C340,370 340,340 340,310 Z"
          fill="url(#bodyGrad)" stroke="#7888a0" stroke-width="1.5"/>
    <!-- Body side shadow -->
    <path d="M340,310
             C340,270 370,250 420,245
             L530,265
             C560,270 560,310 540,320
             L540,320
             C520,325 440,330 380,330
             C350,330 340,325 340,310 Z"
          fill="url(#bodySideGrad)" opacity="0.3"/>
    <!-- Red stripe on body -->
    <path d="M345,335
             C345,330 370,325 420,322
             L540,320
             L540,330
             C440,335 370,340 345,340 Z"
          fill="url(#redStripe)" opacity="0.85"/>
    <!-- Cockpit glass -->
    <path d="M350,305
             C350,280 375,260 405,255
             L430,252
             L430,305
             Z"
          fill="url(#glassGrad)" stroke="#4090b0" stroke-width="1.5" opacity="0.9"/>
    <!-- Glass highlight -->
    <path d="M360,295
             C360,280 380,268 400,262
             L410,260
             L410,295
             Z"
          fill="#ffffff" opacity="0.25"/>
    <!-- Side windows -->
    <rect x="445" y="272" width="40" height="28" rx="5" fill="url(#glassGrad)" stroke="#4090b0" stroke-width="1.2" opacity="0.85"/>
    <rect x="495" y="275" width="28" height="25" rx="4" fill="url(#glassGrad)" stroke="#4090b0" stroke-width="1.2" opacity="0.85"/>
    <!-- Window highlights -->
    <rect x="448" y="275" width="15" height="10" rx="3" fill="#ffffff" opacity="0.2"/>
    <rect x="498" y="278" width="10" height="8" rx="2" fill="#ffffff" opacity="0.2"/>
    <!-- Door line -->
    <line x1="440" y1="260" x2="440" y2="400" stroke="#7888a0" stroke-width="1" opacity="0.5"/>
    <!-- Door handle -->
    <rect x="443" y="340" width="10" height="3" rx="1.5" fill="#5a6a7a"/>
    <!-- Engine housing on top -->
    <path d="M400,248 L460,248 L470,245 L470,240 L400,240 Z"
          fill="#b0bcc8" stroke="#7888a0" stroke-width="1"/>
    <path d="M410,240 L460,240 L465,237 L415,237 Z"
          fill="#a0acb8" stroke="#7888a0" stroke-width="0.8"/>
    <!-- Rotor mast -->
    <rect x="447" y="170" width="6" height="72" rx="2" fill="#5a6a7a"/>
    <rect x="444" y="235" width="12" height="8" rx="2" fill="#6a7a8a"/>
    <!-- Rotor hub -->
    <circle cx="450" cy="155" r="8" fill="#4a5a6a" stroke="#3a4a5a" stroke-width="1.5"/>
    <circle cx="450" cy="155" r="4" fill="#3a4a5a"/>
    <!-- Main rotor blades (spinning) -->
    <g class="main-rotor">
      <rect x="210" y="150" width="480" height="8" rx="3" fill="#5a6a7a" opacity="0.85"/>
      <rect x="210" y="151" width="480" height="3" rx="1" fill="#8a9aaa" opacity="0.4"/>
    </g>
    <!-- Rotor blur disc (visual spinning effect) -->
    <ellipse class="rotor-blur" cx="450" cy="155" rx="240" ry="6" fill="#8898a8" opacity="0.2"/>
    <!-- Exhaust -->
    <g class="exhaust">
      <ellipse cx="548" cy="385" rx="8" ry="5" fill="#ff8844" opacity="0.5"/>
      <ellipse cx="558" cy="388" rx="12" ry="6" fill="#ff6633" opacity="0.3"/>
      <ellipse cx="572" cy="391" rx="16" ry="7" fill="#ff4422" opacity="0.15"/>
    </g>
    <!-- Navigation lights -->
    <circle cx="340" cy="310" r="4" fill="#ff2222" opacity="0.9" filter="url(#glow)"/>
    <circle cx="540" cy="320" r="4" fill="#22ff44" opacity="0.9" filter="url(#glow)"/>
    <circle cx="740" cy="225" r="3" fill="#ffffff" opacity="0.8" filter="url(#glow)"/>
    <!-- Antenna -->
    <line x1="480" y1="245" x2="485" y2="220" stroke="#5a6a7a" stroke-width="1.5" stroke-linecap="round"/>
    <circle cx="485" cy="218" r="2" fill="#ff4444" opacity="0.8"/>
  </g>
  <!-- Foreground clouds (in front) -->
  <g opacity="0.08">
    <ellipse cx="300" cy="550" rx="200" ry="40" fill="#ffffff"/>
    <ellipse cx="650" cy="600" rx="150" ry="30" fill="#ffffff"/>
  </g>
</svg>