<svg xmlns="http://www.w3.org/2000/svg" viewBox="0 0 800 600" width="100%" height="auto">
  <defs>
    <!-- Screen Glow Gradient -->
    <radialGradient id="screenGlow" cx="50%" cy="50%" r="50%" fx="50%" fy="50%">
      <stop offset="0%" stop-color="#00e5ff" stop-opacity="0.4" />
      <stop offset="100%" stop-color="#00e5ff" stop-opacity="0" />
    </radialGradient>
    <!-- Night Sky Gradient -->
    <linearGradient id="nightSky" x1="0%" y1="0%" x2="0%" y2="100%">
      <stop offset="0%" stop-color="#0f172a" />
      <stop offset="100%" stop-color="#1e293b" />
    </linearGradient>
    <!-- Moon Glow -->
    <radialGradient id="moonGlow" cx="50%" cy="50%" r="50%">
      <stop offset="0%" stop-color="#fef08a" stop-opacity="0.8" />
      <stop offset="100%" stop-color="#fef08a" stop-opacity="0" />
    </radialGradient>
  </defs>
  <!-- Background / Night Sky -->
  <rect width="800" height="600" fill="url(#nightSky)" />
  <!-- Window -->
  <rect x="50" y="50" width="220" height="280" rx="10" fill="#0f172a" stroke="#334155" stroke-width="8" />
  <!-- Window Panes -->
  <line x1="160" y1="50" x2="160" y2="330" stroke="#334155" stroke-width="8" />
  <line x1="50" y1="190" x2="270" y2="190" stroke="#334155" stroke-width="8" />
  <!-- Window Crossbars -->
  <rect x="50" y="50" width="220" height="280" rx="10" fill="none" stroke="#1e293b" stroke-width="4" />
  <!-- Moon & Glow -->
  <circle cx="130" cy="120" r="60" fill="url(#moonGlow)" />
  <circle cx="130" cy="120" r="35" fill="#fef08a" />
  <!-- Moon Craters -->
  <circle cx="120" cy="110" r="6" fill="#eab308" opacity="0.4" />
  <circle cx="145" cy="125" r="8" fill="#eab308" opacity="0.4" />
  <circle cx="125" cy="135" r="4" fill="#eab308" opacity="0.4" />
  <!-- Stars -->
  <circle cx="300" cy="80" r="2" fill="#fff" opacity="0.8" />
  <circle cx="350" cy="150" r="1.5" fill="#fff" opacity="0.6" />
  <circle cx="400" cy="100" r="2.5" fill="#fff" opacity="0.9" />
  <circle cx="450" cy="180" r="1" fill="#fff" opacity="0.5" />
  <circle cx="500" cy="70" r="2" fill="#fff" opacity="0.7" />
  <circle cx="700" cy="90" r="2" fill="#fff" opacity="0.8" />
  <circle cx="750" cy="160" r="1.5" fill="#fff" opacity="0.6" />
  <circle cx="680" cy="200" r="1" fill="#fff" opacity="0.5" />
  <circle cx="80" cy="250" r="1.5" fill="#fff" opacity="0.7" />
  <circle cx="220" cy="280" r="2" fill="#fff" opacity="0.6" />
  <!-- Wall Clock (3 AM) -->
  <g transform="translate(650, 150)">
    <circle cx="0" cy="0" r="50" fill="#e2e8f0" stroke="#475569" stroke-width="6" />
    <circle cx="0" cy="0" r="4" fill="#1e293b" />
    <!-- Hour markers -->
    <line x1="0" y1="-40" x2="0" y2="-35" stroke="#475569" stroke-width="4" />
    <line x1="40" y1="0" x2="35" y2="0" stroke="#475569" stroke-width="4" />
    <line x1="0" y1="40" x2="0" y2="35" stroke="#475569" stroke-width="4" />
    <line x1="-40" y1="0" x2="-35" y2="0" stroke="#475569" stroke-width="4" />
    <!-- Hour Hand (pointing to 3) -->
    <line x1="0" y1="0" x2="30" y2="0" stroke="#1e293b" stroke-width="6" stroke-linecap="round" />
    <!-- Minute Hand (pointing to 12) -->
    <line x1="0" y1="0" x2="0" y2="-35" stroke="#1e293b" stroke-width="4" stroke-linecap="round" />
    <!-- Digital 3am text -->
    <text x="0" y="20" font-family="monospace" font-size="10" fill="#ef4444" text-anchor="middle" font-weight="bold">3:00</text>
  </g>
  <!-- Desk -->
  <rect x="0" y="420" width="800" height="180" fill="#3e2723" />
  <rect x="0" y="420" width="800" height="15" fill="#5d4037" />
  <!-- Desk Wood Grain (subtle) -->
  <line x1="100" y1="450" x2="300" y2="450" stroke="#4e342e" stroke-width="2" opacity="0.5" />
  <line x1="400" y1="480" x2="700" y2="480" stroke="#4e342e" stroke-width="2" opacity="0.5" />
  <line x1="50" y1="520" x2="400" y2="520" stroke="#4e342e" stroke-width="2" opacity="0.5" />
  <line x1="500" y1="550" x2="750" y2="550" stroke="#4e342e" stroke-width="2" opacity="0.5" />
  <!-- Screen Glow (Behind Duck and Laptop) -->
  <polygon points="450,250 750,250 800,450 400,450" fill="url(#screenGlow)" />
  <!-- Duck Programmer -->
  <g id="duck">
    <!-- Body -->
    <ellipse cx="280" cy="460" rx="90" ry="100" fill="#facc15" />
    <!-- Body shadow -->
    <ellipse cx="280" cy="480" rx="80" ry="80" fill="#eab308" opacity="0.5" />
    <!-- Tail Feathers -->
    <path d="M 190 420 Q 150 400 160 440 Q 140 430 170 460 Q 150 470 180 480 Z" fill="#facc15" stroke="#eab308" stroke-width="3" />
    <!-- Head -->
    <circle cx="300" cy="310" r="60" fill="#facc15" />
    <!-- Messy Feather (3am struggle) -->
    <path d="M 260 255 Q 250 240 265 245 Q 260 230 275 240 Z" fill="#facc15" stroke="#eab308" stroke-width="2" />
    <path d="M 280 255 Q 285 235 290 250 Z" fill="#facc15" stroke="#eab308" stroke-width="2" />
    <!-- Propeller Beanie -->
    <rect x="260" y="255" width="80" height="15" rx="5" fill="#3b82f6" />
    <rect x="260" y="255" width="80" height="5" rx="2" fill="#60a5fa" />
    <!-- Propeller Base -->
    <circle cx="300" cy="250" r="6" fill="#1e293b" />
    <!-- Propeller Blades -->
    <line x1="270" y1="250" x2="330" y2="250" stroke="#94a3b8" stroke-width="4" />
    <ellipse cx="260" cy="250" rx="15" ry="6" fill="#f59e0b" />
    <ellipse cx="340" cy="250" rx="15" ry="6" fill="#f59e0b" />
    <!-- Beak (3/4 view facing right) -->
    <path d="M 345 300 Q 400 310 350 330 Z" fill="#f97316" />
    <path d="M 345 300 Q 380 305 350 315 Z" fill="#fb923c" />
    <!-- Beak shadow -->
    <path d="M 350 315 Q 380 320 350 330 Z" fill="#ea580c" />
    <!-- Tired Eyes -->
    <!-- Left Eye (Droopy) -->
    <path d="M 285 295 Q 295 305 305 295" fill="none" stroke="#1e293b" stroke-width="5" stroke-linecap="round" />
    <!-- Right Eye (Half closed) -->
    <path d="M 320 300 Q 330 310 340 300" fill="none" stroke="#1e293b" stroke-width="5" stroke-linecap="round" />
    <!-- Under-eye bags / Dark circles -->
    <path d="M 285 305 Q 295 312 305 305" fill="none" stroke="#475569" stroke-width="2" stroke-linecap="round" opacity="0.6" />
    <path d="M 320 310 Q 330 317 340 310" fill="none" stroke="#475569" stroke-width="2" stroke-linecap="round" opacity="0.6" />
    <!-- Glasses -->
    <circle cx="295" cy="300" r="22" fill="none" stroke="#67e8f9" stroke-width="4" />
    <circle cx="330" cy="305" r="22" fill="none" stroke="#67e8f9" stroke-width="4" />
    <!-- Glasses Bridge -->
    <path d="M 317 300 Q 320 295 323 300" fill="none" stroke="#67e8f9" stroke-width="4" />
    <!-- Glasses Arms -->
    <line x1="273" y1="295" x2="250" y2="285" stroke="#67e8f9" stroke-width="4" stroke-linecap="round" />
    <line x1="352" y1="300" x2="370" y2="290" stroke="#67e8f9" stroke-width="4" stroke-linecap="round" />
    <!-- Sweat Drop (Stress) -->
    <path d="M 270 270 Q 270 280 265 280 Q 260 280 260 270 Q 260 260 265 255 Q 270 260 270 270 Z" fill="#38bdf8" opacity="0.8" />
    <!-- Wing (Typing on Laptop) -->
    <path d="M 330 400 Q 420 430 430 480 Q 400 500 350 480 Z" fill="#facc15" stroke="#eab308" stroke-width="4" />
    <!-- Wing fingers/feathers -->
    <path d="M 400 460 Q 420 460 430 470" fill="none" stroke="#eab308" stroke-width="3" stroke-linecap="round" />
    <path d="M 390 470 Q 410 470 420 480" fill="none" stroke="#eab308" stroke-width="3" stroke-linecap="round" />
    <path d="M 380 480 Q 400 480 410 490" fill="none" stroke="#eab308" stroke-width="3" stroke-linecap="round" />
  </g>
  <!-- Laptop -->
  <g id="laptop" transform="translate(480, 380)">
    <!-- Laptop Base -->
    <polygon points="0,100 200,100 240,40 40,40" fill="#475569" />
    <polygon points="0,100 200,100 240,40 40,40" fill="none" stroke="#1e293b" stroke-width="3" />
    <!-- Keyboard Area -->
    <rect x="20" y="60" width="160" height="30" rx="4" fill="#1e293b" />
    <!-- Keys -->
    <g fill="#64748b" stroke="#475569" stroke-width="1">
      <rect x="25" y="65" width="10" height="8" rx="1" />
      <rect x="38" y="65" width="10" height="8" rx="1" />
      <rect x="51" y="65" width="10" height="8" rx="1" />
      <rect x="64" y="65" width="10" height="8" rx="1" />
      <rect x="77" y="65" width="10" height="8" rx="1" />
      <rect x="90" y="65" width="10" height="8" rx="1" />
      <rect x="103" y="65" width="10" height="8" rx="1" />
      <rect x="116" y="65" width="10" height="8" rx="1" />
      <rect x="129" y="65" width="10" height="8" rx="1" />
      <rect x="142" y="65" width="10" height="8" rx="1" />
      <rect x="155" y="65" width="20" height="8" rx="1" />
      <rect x="25" y="78" width="20" height="8" rx="1" />
      <rect x="50" y="78" width="10" height="8" rx="1" />
      <rect x="63" y="78" width="10" height="8" rx="1" />
      <rect x="76" y="78" width="10" height="8" rx="1" />
      <rect x="89" y="78" width="10" height="8" rx="1" />
      <rect x="102" y="78" width="10" height="8" rx="1" />
      <rect x="115" y="78" width="10" height="8" rx="1" />
      <rect x="128" y="78" width="10" height="8" rx="1" />
      <rect x="141" y="78" width="10" height="8" rx="1" />
      <rect x="154" y="78" width="20" height="8" rx="1" />
    </g>
    <!-- Trackpad -->
    <rect x="70" y="90" width="60" height="8" rx="2" fill="#334155" />
    <!-- Laptop Screen -->
    <polygon points="40,40 240,40 220,-40 60,-40" fill="#0f172a" stroke="#1e293b" stroke-width="3" />
    <!-- Screen Background -->
    <polygon points="45,35 235,35 216,-35 64,-35" fill="#1e1b4b" />
    <!-- Code on Screen -->
    <g font-family="monospace" font-size="8" fill="#a5f3fc">
      <!-- Line numbers -->
      <text x="50" y="-25" fill="#475569">1</text>
      <text x="50" y="-15" fill="#475569">2</text>
      <text x="50" y="-5" fill="#475569">3</text>
      <text x="50" y="5" fill="#475569">4</text>
      <text x="50" y="15" fill="#475569">5</text>
      <text x="50" y="25" fill="#475569">6</text>
      <!-- Code content -->
      <text x="60" y="-25" fill="#c084fc">import</text>
      <text x="80" y="-25" fill="#fbbf24">coffee</text>
      <text x="60" y="-15" fill="#c084fc">import</text>
      <text x="80" y="-15" fill="#fbbf24">sleep</text>
      <text x="60" y="-5" fill="#f472b6">while</text>
      <text x="80" y="-5" fill="#e2e8f0">True</text>
      <text x="95" y="-5" fill="#e2e8f0">:</text>
      <text x="70" y="5" fill="#f472b6">try</text>
      <text x="85" y="5" fill="#e2e8f0">:</text>
      <text x="80" y="15" fill="#e2e8f0">debug()</text>
      <text x="70" y="25" fill="#f472b6">except</text>
      <text x="100" y="25" fill="#fbbf24">Bug</text>
      <text x="115" y="25" fill="#e2e8f0">:</text>
      <text x="80" y="35" fill="#e2e8f0">cry()</text>
    </g>
    <!-- The Literal Bug (Ladybug) on Screen -->
    <g transform="translate(180, -15)">
      <!-- Bug Body -->
      <ellipse cx="0" cy="0" rx="8" ry="6" fill="#ef4444" />
      <!-- Bug Head -->
      <circle cx="-8" cy="0" r="4" fill="#1e293b" />
      <!-- Bug Antennae -->
      <line x1="-10" y1="-2" x2="-15" y2="-8" stroke="#1e293b" stroke-width="1.5" />
      <line x1="-8" y1="-4" x2="-10" y2="-10" stroke="#1e293b" stroke-width="1.5" />
      <!-- Bug Spots -->
      <circle cx="-2" cy="-2" r="1.5" fill="#1e293b" />
      <circle cx="3" cy="-1" r="1.5" fill="#1e293b" />
      <circle cx="0" cy="3" r="1.5" fill="#1e293b" />
      <!-- Bug Legs -->
      <line x1="-4" y1="4" x2="-6" y2="8" stroke="#1e293b" stroke-width="1" />
      <line x1="0" y1="5" x2="0" y2="9" stroke="#1e293b" stroke-width="1" />
      <line x1="4" y1="4" x2="6" y2="8" stroke="#1e293b" stroke-width="1" />
    </g>
    <!-- Highlighted bug line -->
    <rect x="75" y="20" width="50" height="10" fill="#fef08a" opacity="0.3" />
  </g>
  <!-- Coffee Mug -->
  <g id="coffee" transform="translate(150, 420)">
    <!-- Mug Shadow -->
    <ellipse cx="30" cy="65" rx="35" ry="10" fill="#1e293b" opacity="0.5" />
    <!-- Mug Handle -->
    <path d="M 50 20 Q 75 20 75 40 Q 75 60 50 60" fill="none" stroke="#e2e8f0" stroke-width="8" stroke-linecap="round" />
    <!-- Mug Body -->
    <rect x="0" y="0" width="60" height="65" rx="8" fill="#e2e8f0" />
    <!-- Mug Design (Sass/Tea stain) -->
    <circle cx="30" cy="35" r="15" fill="none" stroke="#cbd5e1" stroke-width="2" />
    <text x="30" y="39" font-family="monospace" font-size="10" fill="#94a3b8" text-anchor="middle">:(){ :|:&amp; };</text>
    <!-- Coffee Inside -->
    <ellipse cx="30" cy="0" rx="25" ry="8" fill="#451a03" />
    <!-- Coffee Rim -->
    <ellipse cx="30" cy="0" rx="25" ry="8" fill="none" stroke="#cbd5e1" stroke-width="2" />
    <!-- Steam -->
    <g fill="none" stroke="#cbd5e1" stroke-width="3" stroke-linecap="round" opacity="0.6">
      <path d="M 15 -5 Q 10 -15 15 -25 T 15 -40" />
      <path d="M 30 -8 Q 25 -20 30 -30 T 30 -45" />
      <path d="M 45 -5 Q 40 -15 45 -25 T 45 -35" />
    </g>
  </g>
  <!-- Additional Ambient Elements -->
  <!-- Empty Pizza Box (Bottom right) -->
  <g transform="translate(620, 480)">
    <rect x="0" y="0" width="80" height="80" rx="5" fill="#f8fafc" stroke="#cbd5e1" stroke-width="2" />
    <rect x="5" y="5" width="70" height="70" rx="3" fill="#f1f5f9" />
    <path d="M 40 5 L 40 75" stroke="#cbd5e1" stroke-width="1" />
    <path d="M 5 40 L 75 40" stroke="#cbd5e1" stroke-width="1" />
    <!-- Grease spots -->
    <circle cx="25" cy="25" r="10" fill="#fef08a" opacity="0.5" />
    <circle cx="55" cy="55" r="12" fill="#fef08a" opacity="0.5" />
    <circle cx="25" cy="55" r="8" fill="#fef08a" opacity="0.5" />
  </g>
  <!-- Scattered Papers (Bottom left) -->
  <g transform="translate(50, 500)">
    <rect x="0" y="0" width="40" height="50" fill="#f8fafc" stroke="#cbd5e1" stroke-width="1" transform="rotate(-15)" />
    <line x1="5" y1="10" x2="35" y2="10" stroke="#94a3b8" stroke-width="1" transform="rotate(-15)" />
    <line x1="5" y1="20" x2="35" y2="20" stroke="#94a3b8" stroke-width="1" transform="rotate(-15)" />
    <line x1="5" y1="30" x2="25" y2="30" stroke="#94a3b8" stroke-width="1" transform="rotate(-15)" />
    <rect x="10" y="5" width="40" height="50" fill="#f8fafc" stroke="#cbd5e1" stroke-width="1" transform="rotate(10)" />
    <line x1="15" y1="15" x2="45" y2="15" stroke="#94a3b8" stroke-width="1" transform="rotate(10)" />
    <line x1="15" y1="25" x2="45" y2="25" stroke="#94a3b8" stroke-width="1" transform="rotate(10)" />
    <line x1="15" y1="35" x2="35" y2="35" stroke="#94a3b8" stroke-width="1" transform="rotate(10)" />
  </g>
  <!-- Overall Vibe Text (Top Right) -->
  <text x="750" y="50" font-family="monospace" font-size="14" fill="#ef4444" text-anchor="end" font-weight="bold">3 AM DEBUGGING</text>
  <text x="750" y="65" font-family="monospace" font-size="10" fill="#94a3b8" text-anchor="end">Session: 6 hrs</text>
  <text x="750" y="80" font-family="monospace" font-size="10" fill="#94a3b8" text-anchor="end">Bugs: 42</text>
  <text x="750" y="95" font-family="monospace" font-size="10" fill="#94a3b8" text-anchor="end">Sanity: 0</text>
</svg>