<svg xmlns="http://www.w3.org/2000/svg" viewBox="0 0 800 600" width="100%" height="auto">
  <defs>
    <!-- Background Gradient -->
    <radialGradient id="bgGlow" cx="50%" cy="50%" r="70%" fx="50%" fy="50%">
      <stop offset="0%" stop-color="#1b2330" />
      <stop offset="100%" stop-color="#0a0c10" />
    </radialGradient>
    <!-- Lamp Light Gradient -->
    <radialGradient id="lampGlow" cx="50%" cy="50%" r="50%">
      <stop offset="0%" stop-color="#f0a500" stop-opacity="0.8" />
      <stop offset="50%" stop-color="#f0a500" stop-opacity="0.3" />
      <stop offset="100%" stop-color="#f0a500" stop-opacity="0" />
    </radialGradient>
    <!-- Screen Glow Gradient -->
    <linearGradient id="screenGlow" x1="0%" y1="0%" x2="100%" y2="100%">
      <stop offset="0%" stop-color="#58a6ff" stop-opacity="0.4" />
      <stop offset="100%" stop-color="#58a6ff" stop-opacity="0" />
    </linearGradient>
    <!-- Coffee Steam Filter -->
    <filter id="blur">
      <feGaussianBlur stdDeviation="2" />
    </filter>
  </defs>
  <!-- Background -->
  <rect width="800" height="600" fill="url(#bgGlow)" />
  <!-- Window (Top Right) -->
  <g transform="translate(620, 40)">
    <rect x="0" y="0" width="140" height="180" rx="10" fill="#161b22" stroke="#30363d" stroke-width="4" />
    <!-- Window Panes -->
    <line x1="70" y1="0" x2="70" y2="180" stroke="#30363d" stroke-width="4" />
    <line x1="0" y1="90" x2="140" y2="90" stroke="#30363d" stroke-width="4" />
    <!-- Moon -->
    <path d="M 100 30 A 25 25 0 1 1 80 60 A 30 30 0 1 0 100 30 Z" fill="#f4d03f" />
    <!-- Stars -->
    <circle cx="30" cy="40" r="2" fill="#fff" />
    <circle cx="50" cy="70" r="1.5" fill="#fff" />
    <circle cx="110" cy="80" r="2" fill="#fff" />
    <circle cx="20" cy="120" r="1.5" fill="#fff" />
    <circle cx="120" cy="140" r="2" fill="#fff" />
  </g>
  <!-- Clock (Top Center) -->
  <g transform="translate(400, 100)">
    <circle cx="0" cy="0" r="45" fill="#161b22" stroke="#30363d" stroke-width="4" />
    <circle cx="0" cy="0" r="40" fill="#0d1117" />
    <!-- Hour markers -->
    <line x1="0" y1="-35" x2="0" y2="-30" stroke="#8b949e" stroke-width="3" />
    <line x1="0" y1="35" x2="0" y2="30" stroke="#8b949e" stroke-width="3" />
    <line x1="-35" y1="0" x2="-30" y2="0" stroke="#8b949e" stroke-width="3" />
    <line x1="35" y1="0" x2="30" y2="0" stroke="#8b949e" stroke-width="3" />
    <!-- Hands (3:00 AM) -->
    <line x1="0" y1="0" x2="0" y2="-25" stroke="#58a6ff" stroke-width="4" stroke-linecap="round" />
    <line x1="0" y1="0" x2="25" y2="0" stroke="#58a6ff" stroke-width="3" stroke-linecap="round" />
    <circle cx="0" cy="0" r="4" fill="#f85149" />
  </g>
  <!-- Desk -->
  <rect x="0" y="450" width="800" height="150" fill="#1f2428" />
  <rect x="0" y="450" width="800" height="8" fill="#30363d" />
  <!-- Shadows on Desk -->
  <ellipse cx="500" cy="460" rx="140" ry="15" fill="#0d1117" opacity="0.6" />
  <ellipse cx="300" cy="520" rx="80" ry="15" fill="#0d1117" opacity="0.6" />
  <ellipse cx="142.5" cy="460" rx="25" ry="8" fill="#0d1117" opacity="0.6" />
  <!-- Desk Lamp (Right Side) -->
  <g>
    <!-- Lamp Base -->
    <ellipse cx="700" cy="450" rx="30" ry="10" fill="#30363d" />
    <rect x="695" y="300" width="10" height="150" fill="#484f58" />
    <!-- Lamp Arms -->
    <line x1="700" y1="300" x2="600" y2="220" stroke="#484f58" stroke-width="8" stroke-linecap="round" />
    <line x1="600" y1="220" x2="500" y2="240" stroke="#484f58" stroke-width="8" stroke-linecap="round" />
    <!-- Lamp Head -->
    <path d="M 480 220 L 520 260 L 500 270 L 460 230 Z" fill="#f0a500" />
    <!-- Light Cone -->
    <polygon points="460,230 520,260 650,500 300,500" fill="url(#lampGlow)" />
  </g>
  <!-- Laptop -->
  <g>
    <!-- Screen Back -->
    <rect x="380" y="220" width="240" height="180" rx="10" fill="#21262d" stroke="#30363d" stroke-width="4" />
    <!-- Screen Bezel -->
    <rect x="385" y="225" width="230" height="170" rx="5" fill="#0d1117" />
    <!-- Screen Display -->
    <rect x="390" y="230" width="220" height="160" rx="2" fill="#0d1117" />
    <!-- Code on Screen -->
    <text x="400" y="250" font-family="monospace" font-size="12" fill="#58a6ff">
      <tspan x="400" dy="0">1  const duck = {</tspan>
      <tspan x="400" dy="18">2    name: "Quack",</tspan>
      <tspan x="400" dy="18">3    debug: () => {</tspan>
      <tspan x="400" dy="18">4      while(true) {</tspan>
      <tspan x="400" dy="18">5        coffee.drink();</tspan>
      <tspan x="400" dy="18">6        console.log("🦆");</tspan>
      <tspan x="400" dy="18">7      }</tspan>
      <tspan x="400" dy="18">8    }</tspan>
      <tspan x="400" dy="18">9  }</tspan>
    </text>
    <!-- Screen Glow Effect -->
    <polygon points="390,230 610,230 610,390 390,390" fill="url(#screenGlow)" />
    <!-- Keyboard Base -->
    <rect x="370" y="410" width="260" height="20" rx="4" fill="#21262d" stroke="#30363d" stroke-width="2" />
    <!-- Keys -->
    <rect x="380" y="415" width="240" height="10" rx="2" fill="#0d1117" />
    <!-- Trackpad -->
    <rect x="480" y="415" width="40" height="10" rx="2" fill="#30363d" />
  </g>
  <!-- Sticky Notes -->
  <g>
    <!-- Note on Desk -->
    <rect x="500" y="460" width="60" height="60" fill="#f0a500" transform="rotate(-15 500 460)" />
    <line x1="510" y1="480" x2="540" y2="480" stroke="#0d1117" stroke-width="2" transform="rotate(-15 500 460)" />
    <line x1="510" y1="490" x2="530" y2="490" stroke="#0d1117" stroke-width="2" transform="rotate(-15 500 460)" />
    <line x1="510" y1="500" x2="545" y2="500" stroke="#0d1117" stroke-width="2" transform="rotate(-15 500 460)" />
    <!-- Note on Laptop -->
    <rect x="420" y="200" width="50" height="50" fill="#58a6ff" transform="rotate(10 420 200)" />
    <line x1="430" y1="220" x2="450" y2="220" stroke="#0d1117" stroke-width="2" transform="rotate(10 420 200)" />
    <line x1="430" y1="230" x2="460" y2="230" stroke="#0d1117" stroke-width="2" transform="rotate(10 420 200)" />
  </g>
  <!-- Duck Programmer -->
  <g>
    <!-- Duck Body (Hoodie) -->
    <path d="M 230 400 C 200 450, 200 520, 300 520 C 400 520, 400 450, 370 400 Z" fill="#30363d" />
    <!-- Hoodie Strings -->
    <line x1="280" y1="400" x2="270" y2="430" stroke="#f0a500" stroke-width="3" stroke-linecap="round" />
    <line x1="320" y1="400" x2="330" y2="430" stroke="#f0a500" stroke-width="3" stroke-linecap="round" />
    <!-- Duck Head -->
    <circle cx="300" cy="280" r="55" fill="#f0a500" />
    <!-- Hood -->
    <path d="M 245 280 C 245 220, 355 220, 355 280 C 355 300, 245 300, 245 280 Z" fill="#30363d" />
    <!-- Beak -->
    <path d="M 250 270 L 180 290 L 250 310 Z" fill="#f85149" />
    <!-- Beak Detail -->
    <line x1="250" y1="290" x2="190" y2="290" stroke="#c0392b" stroke-width="2" />
    <!-- Eyes (Tired) -->
    <!-- Left Eye -->
    <circle cx="280" cy="270" r="10" fill="#fff" />
    <circle cx="275" cy="270" r="5" fill="#0d1117" />
    <!-- Eye Bag -->
    <path d="M 270 280 Q 280 285 290 280" stroke="#8b949e" stroke-width="2" fill="none" />
    <!-- Right Eye (partially visible) -->
    <circle cx="320" cy="270" r="8" fill="#fff" />
    <circle cx="315" cy="270" r="4" fill="#0d1117" />
    <path d="M 312 278 Q 320 283 328 278" stroke="#8b949e" stroke-width="2" fill="none" />
    <!-- Glasses -->
    <circle cx="280" cy="270" r="16" fill="none" stroke="#0d1117" stroke-width="3" />
    <circle cx="320" cy="270" r="14" fill="none" stroke="#0d1117" stroke-width="3" />
    <line x1="296" y1="270" x2="306" y2="270" stroke="#0d1117" stroke-width="3" />
    <!-- Screen Reflection on Glasses -->
    <ellipse cx="280" cy="270" rx="8" ry="4" fill="#58a6ff" opacity="0.6" transform="rotate(-30 280 270)" />
    <ellipse cx="320" cy="270" rx="6" ry="3" fill="#58a6ff" opacity="0.6" transform="rotate(-30 320 270)" />
    <!-- Duck Wings (Typing) -->
    <!-- Left Wing -->
    <path d="M 250 420 Q 280 440 380 420" fill="none" stroke="#f0a500" stroke-width="20" stroke-linecap="round" />
    <!-- Right Wing -->
    <path d="M 350 420 Q 380 440 400 420" fill="none" stroke="#f0a500" stroke-width="20" stroke-linecap="round" />
  </g>
  <!-- Coffee Mug -->
  <g>
    <!-- Mug Shadow -->
    <ellipse cx="142.5" cy="450" rx="25" ry="8" fill="#0d1117" opacity="0.6" />
    <!-- Mug Body -->
    <rect x="120" y="380" width="45" height="55" rx="5" fill="#f85149" />
    <!-- Mug Handle -->
    <path d="M 165 390 Q 185 390 185 410 Q 185 430 165 430" fill="none" stroke="#f85149" stroke-width="6" stroke-linecap="round" />
    <!-- Coffee Inside -->
    <ellipse cx="142.5" cy="380" rx="22.5" ry="6" fill="#3e2723" />
    <!-- Coffee Stain on Desk -->
    <ellipse cx="200" cy="480" rx="15" ry="10" fill="#3e2723" opacity="0.4" />
    <!-- Steam -->
    <g filter="url(#blur)" opacity="0.6">
      <path d="M 130 370 Q 125 350 135 340 T 130 310" fill="none" stroke="#8b949e" stroke-width="3" stroke-linecap="round" />
      <path d="M 150 365 Q 155 345 145 335 T 150 305" fill="none" stroke="#8b949e" stroke-width="3" stroke-linecap="round" />
      <path d="M 140 375 Q 135 355 145 345 T 140 315" fill="none" stroke="#8b949e" stroke-width="2" stroke-linecap="round" />
    </g>
  </g>
</svg>