<svg xmlns="http://www.w3.org/2000/svg" viewBox="0 0 600 400" width="100%" height="auto">
  <defs>
    <!-- Night Sky Gradient -->
    <linearGradient id="nightSky" x1="0%" y1="0%" x2="0%" y2="100%">
      <stop offset="0%" style="stop-color:#0f0c29;stop-opacity:1" />
      <stop offset="50%" style="stop-color:#302b63;stop-opacity:1" />
      <stop offset="100%" style="stop-color:#24243e;stop-opacity:1" />
    </linearGradient>
    <!-- Steam Animation -->
    <style>
      .steam {
        animation: rise 2s infinite ease-out;
        opacity: 0;
      }
      @keyframes rise {
        0% { transform: translateY(0); opacity: 0.8; }
        50% { opacity: 0.4; }
        100% { transform: translateY(-20px); opacity: 0; }
      }
      .steam:nth-child(2) { animation-delay: 0.5s; }
      .steam:nth-child(3) { animation-delay: 1s; }
    </style>
  </defs>
  <!-- Background -->
  <rect width="100%" height="100%" fill="url(#nightSky)" />
  <!-- Moon -->
  <circle cx="520" cy="60" r="40" fill="#fdfd96" opacity="0.9" />
  <circle cx="530" cy="50" r="35" fill="url(#nightSky)" opacity="0.2" />
  <!-- Clock showing 3:00 -->
  <g transform="translate(80, 80)">
    <circle cx="0" cy="0" r="30" fill="#fff" opacity="0.2" stroke="#fff" stroke-width="2"/>
    <line x1="0" y1="0" x2="0" y2="-20" stroke="#fff" stroke-width="3" stroke-linecap="round"/> <!-- Hour hand -->
    <line x1="0" y1="0" x2="15" y2="0" stroke="#fff" stroke-width="2" stroke-linecap="round"/> <!-- Minute hand -->
    <text x="0" y="45" font-family="monospace" fill="#ff6b6b" font-size="14" text-anchor="middle" font-weight="bold">3:00 AM</text>
  </g>
  <!-- Desk -->
  <rect x="50" y="300" width="500" height="10" fill="#5c4033" />
  <rect x="70" y="310" width="20" height="90" fill="#4a3728" />
  <rect x="510" y="310" width="20" height="90" fill="#4a3728" />
  <!-- Monitor -->
  <g transform="translate(150, 120)">
    <!-- Stand -->
    <rect x="80" y="150" width="40" height="30" fill="#333" />
    <rect x="50" y="180" width="100" height="10" rx="2" fill="#222" />
    <!-- Screen Frame -->
    <rect x="0" y="0" width="300" height="180" rx="10" fill="#222" />
    <!-- Screen -->
    <rect x="10" y="10" width="280" height="160" fill="#1e1e1e" />
    <!-- Code Lines -->
    <rect x="20" y="30" width="50" height="4" fill="#569cd6" /> <!-- blue func -->
    <rect x="75" y="30" width="40" height="4" fill="#dcdcaa" /> <!-- yellow var -->
    <rect x="120" y="30" width="30" height="4" fill="#c586c0" /> <!-- purple keyword -->
    <rect x="20" y="45" width="80" height="4" fill="#608b4e" /> <!-- green comment -->
    <rect x="20" y="60" width="100" height="4" fill="#9cdcfe" /> <!-- light blue string -->
    <!-- Error Line (The Bug Context) -->
    <rect x="20" y="90" width="60" height="4" fill="#ce9178" /> <!-- orange -->
    <rect x="90" y="90" width="20" height="4" fill="#d4d4d4" />
    <!-- The Bug Icon on Screen -->
    <g transform="translate(230, 80)">
       <circle cx="0" cy="0" r="15" fill="#f44747" opacity="0.8" />
       <path d="M-5,-5 L5,5 M5,-5 L-5,5" stroke="white" stroke-width="3" />
       <text x="0" y="4" fill="white" font-family="Arial" font-size="14" text-anchor="middle" font-weight="bold">!</text>
    </g>
    <!-- Magnifying Glass -->
    <g transform="translate(220, 100) rotate(-20)">
      <circle cx="0" cy="0" r="20" stroke="#61afef" stroke-width="4" fill="none" opacity="0.5"/>
      <line x1="14" y1="14" x2="30" y2="30" stroke="#61afef" stroke-width="4" stroke-linecap="round"/>
    </g>
  </g>
  <!-- Coffee Mug -->
  <g transform="translate(480, 240)">
    <path d="M10,0 L60,0 L55,40 Q35,45 15,40 Z" fill="#e0e0e0" stroke="#999" stroke-width="1"/>
    <path d="M15,5 L55,5" stroke="#ccc" stroke-width="1"/>
    <!-- Coffee Liquid -->
    <ellipse cx="35" cy="5" rx="25" ry="5" fill="#6f4e37" />
    <!-- Handle -->
    <path d="M55,10 Q75,10 75,25 Q75,40 55,40" stroke="#e0e0e0" stroke-width="5" fill="none" />
    <!-- Steam -->
    <g fill="none" stroke="white" stroke-width="2" stroke-linecap="round" opacity="0.6">
      <path class="steam" d="M25,-5 Q30,-15 25,-25" />
      <path class="steam" d="M35,-5 Q40,-15 35,-25" />
      <path class="steam" d="M45,-5 Q50,-15 45,-25" />
    </g>
  </g>
  <!-- The Duck Programmer -->
  <g transform="translate(80, 180)">
    <!-- Tail feathers -->
    <path d="M-20,110 Q-40,110 -45,90 L-20,95 Z" fill="#e6c200" />
    <!-- Body -->
    <ellipse cx="20" cy="100" rx="50" ry="45" fill="#ffdd00" />
    <!-- Wing (typing/holding) -->
    <ellipse cx="50" cy="110" rx="25" ry="15" fill="#e6c200" transform="rotate(-10 50 110)" />
    <!-- Head -->
    <circle cx="30" cy="50" r="35" fill="#ffdd00" />
    <!-- Beak -->
    <path d="M45,50 L75,55 L45,65 Z" fill="#ff9900" />
    <!-- Glasses -->
    <g stroke="#333" stroke-width="2" fill="rgba(255,255,255,0.3)">
      <circle cx="25" cy="45" r="12" />
      <line x1="37" y1="45" x2="55" y2="45" /> <!-- Bridge -->
      <circle cx="65" cy="45" r="12" />
      <line x1="77" y1="45" x2="90" y2="40" /> <!-- Arm to head -->
    </g>
    <!-- Eyes (looking at screen) -->
    <circle cx="25" cy="45" r="3" fill="black" />
    <circle cx="65" cy="45" r="3" fill="black" />
    <!-- Sweat drop (stress) -->
    <path d="M80,30 Q85,20 80,15 Q75,20 80,30" fill="#4fc3f7" opacity="0.8" />
  </g>
</svg>