<svg xmlns="http://www.w3.org/2000/svg" viewBox="0 0 400 400" width="100%" height="auto">
  <!-- Background Circle -->
  <circle cx="200" cy="200" r="180" fill="#eef2f3" />
  <!-- Chess Board (Simplified Isometric) -->
  <path d="M120 250 L200 220 L280 250 L200 280 Z" fill="#b58863" stroke="#444" stroke-width="2"/>
  <path d="M120 250 L120 260 L200 290 L200 280 Z" fill="#8b5a2b" stroke="#444" stroke-width="2"/>
  <path d="M200 280 L200 290 L280 260 L280 250 Z" fill="#8b5a2b" stroke="#444" stroke-width="2"/>
  <!-- Chess Pieces (Small simple shapes) -->
  <circle cx="160" cy="245" r="4" fill="white" />
  <circle cx="240" cy="245" r="4" fill="black" />
  <rect x="195" y="230" width="10" height="15" rx="2" fill="white" />
  <rect x="195" y="260" width="10" height="15" rx="2" fill="black" />
  <!-- Octopus Body -->
  <ellipse cx="200" cy="150" rx="60" ry="70" fill="#ff6b6b" />
  <!-- Eyes -->
  <circle cx="180" cy="140" r="12" fill="white" />
  <circle cx="220" cy="140" r="12" fill="white" />
  <circle cx="180" cy="140" r="5" fill="black" />
  <circle cx="220" cy="140" r="5" fill="black" />
  <!-- Tentacles -->
  <g fill="none" stroke="#ff6b6b" stroke-width="12" stroke-linecap="round">
    <!-- Left back -->
    <path d="M150 180 Q120 200 110 220" />
    <!-- Left reaching for piece -->
    <path d="M160 200 Q140 230 155 245" />
    <!-- Bottom center -->
    <path d="M200 210 Q200 230 200 240" />
    <!-- Right reaching for piece -->
    <path d="M240 200 Q260 230 245 245" />
    <!-- Right back -->
    <path d="M250 180 Q280 200 290 220" />
    <!-- Tentacle holding a clock -->
    <path d="M260 160 Q300 160 310 190" />
  </g>
  <!-- Chess Clock -->
  <rect x="300" y="180" width="30" height="30" rx="5" fill="#555" />
  <rect x="305" y="185" width="20" height="10" fill="#ddd" />
  <rect x="305" y="198" width="20" height="10" fill="#ddd" />
  <!-- Detail: Suckers (small dots on tentacles) -->
  <g fill="#ff9999">
    <circle cx="155" cy="240" r="3" />
    <circle cx="245" cy="240" r="3" />
    <circle cx="300" cy="185" r="3" />
  </g>
  <!-- Small thought bubble to show strategy -->
  <path d="M260 100 Q280 100 280 120 Q280 140 260 140 Q240 140 240 120 Q240 100 260 100" fill="white" stroke="#ccc" />
  <path d="M250 130 L240 145" stroke="#ccc" stroke-width="2" />
  <text x="252" y="125" font-family="Arial" font-size="10" fill="#888">Checkmate?</text>
</svg>