<svg xmlns="http://www.w3.org/2000/svg"
     viewBox="0 0 500 500"
     style="background:#f0f8ff" width="100%" height="auto">
  <!-- - Octopus body - -->
  <g id="octopus">
    <!-- Main head (a smooth ellipse) -->
    <ellipse cx="250" cy="160" rx="80" ry="70" fill="#6a5acd"/>
    <!-- Eyes -->
    <circle cx="225" cy="140" r="12" fill="#fff"/>
    <circle cx="275" cy="140" r="12" fill="#fff"/>
    <circle cx="225" cy="140" r="5" fill="#000"/>
    <circle cx="275" cy="140" r="5" fill="#000"/>
    <!-- Mouth (smile) -->
    <path d="M225,180 Q250,200 275,180" stroke="#000" stroke-width="4" fill="none"/>
    <!-- Tentacles – 8 of them, curvy paths -->
    <path d="M250,230 C210,260 180,320 200,380"
          stroke="#6a5acd" stroke-width="20" fill="none" stroke-linecap="round"/>
    <path d="M250,230 C250,260 260,340 300,380"
          stroke="#6a5acd" stroke-width="20" fill="none" stroke-linecap="round"/>
    <path d="M250,230 C290,260 340,300 380,340"
          stroke="#6a5acd" stroke-width="20" fill="none" stroke-linecap="round"/>
    <path d="M250,230 C230,260 210,340 180,380"
          stroke="#6a5acd" stroke-width="20" fill="none" stroke-linecap="round"/>
    <path d="M250,230 C260,260 260,340 250,380"
          stroke="#6a5acd" stroke-width="20" fill="none" stroke-linecap="round"/>
    <path d="M250,230 C240,260 230,340 210,380"
          stroke="#6a5acd" stroke-width="20" fill="none" stroke-linecap="round"/>
    <path d="M250,230 C270,260 300,340 330,380"
          stroke="#6a5acd" stroke-width="20" fill="none" stroke-linecap="round"/>
    <path d="M250,230 C260,260 280,340 300,380"
          stroke="#6a5acd" stroke-width="20" fill="none" stroke-linecap="round"/>
    <!-- One tentacle holding a piece (slightly raised) -->
    <path d="M250,230 C260,210 280,190 300,170"
          stroke="#6a5acd" stroke-width="20" fill="none" stroke-linecap="round"/>
    <!-- The piece (a simple king) held by the raised tentacle -->
    <g id="king-piece" transform="translate(300,150) rotate(-20)">
      <rect x="-10" y="-40" width="20" height="40" fill="#fff" stroke="#000" stroke-width="2"/>
      <polygon points="-12,-45 0,-70 12,-45" fill="#fff" stroke="#000" stroke-width="2"/>
      <line x1="-6" y1="-30" x2="6" y2="-30" stroke="#000" stroke-width="2"/>
      <line x1="-6" y1="-20" x2="6" y2="-20" stroke="#000" stroke-width="2"/>
      <line x1="-6" y1="-10" x2="6" y2="-10" stroke="#000" stroke-width="2"/>
    </g>
  </g>
  <!-- - Chessboard - -->
  <g id="board" transform="translate(150,270) scale(1.2)">
    <rect width="200" height="200" fill="#deb887" stroke="#8b4513" stroke-width="4"/>
    <!-- 8x8 alternating squares -->
    <defs>
      <rect id="whiteSq" width="25" height="25" fill="#fff"/>
      <rect id="blackSq" width="25" height="25" fill="#8b0000"/>
    </defs>
    <!-- Generate pattern via loops (conceptually). Explicitly list squares for simplicity. -->
    <!-- Row 0 -->
    <use href="#whiteSq" x="0"   y="0"/>
    <use href="#blackSq" x="25" y="0"/>
    <use href="#whiteSq" x="50" y="0"/>
    <use href="#blackSq" x="75" y="0"/>
    <use href="#whiteSq" x="100" y="0"/>
    <use href="#blackSq" x="125" y="0"/>
    <use href="#whiteSq" x="150" y="0"/>
    <use href="#blackSq" x="175" y="0"/>
    <!-- Row 1 -->
    <use href="#blackSq" x="0"   y="25"/>
    <use href="#whiteSq" x="25" y="25"/>
    <use href="#blackSq" x="50" y="25"/>
    <use href="#whiteSq" x="75" y="25"/>
    <use href="#blackSq" x="100" y="25"/>
    <use href="#whiteSq" x="125" y="25"/>
    <use href="#blackSq" x="150" y="25"/>
    <use href="#whiteSq" x="175" y="25"/>
    <!-- Row 2 -->
    <use href="#whiteSq" x="0"   y="50"/>
    <use href="#blackSq" x="25" y="50"/>
    <use href="#whiteSq" x="50" y="50"/>
    <use href="#blackSq" x="75" y="50"/>
    <use href="#whiteSq" x="100" y="50"/>
    <use href="#blackSq" x="125" y="50"/>
    <use href="#whiteSq" x="150" y="50"/>
    <use href="#blackSq" x="175" y="50"/>
    <!-- Row 3 -->
    <use href="#blackSq" x="0"   y="75"/>
    <use href="#whiteSq" x="25" y="75"/>
    <use href="#blackSq" x="50" y="75"/>
    <use href="#whiteSq" x="75" y="75"/>
    <use href="#blackSq" x="100" y="75"/>
    <use href="#whiteSq" x="125" y="75"/>
    <use href="#blackSq" x="150" y="75"/>
    <use href="#whiteSq" x="175" y="75"/>
    <!-- Row 4 -->
    <use href="#whiteSq" x="0"   y="100"/>
    <use href="#blackSq" x="25" y="100"/>
    <use href="#whiteSq" x="50" y="100"/>
    <use href="#blackSq" x="75" y="100"/>
    <use href="#whiteSq" x="100" y="100"/>
    <use href="#blackSq" x="125" y="100"/>
    <use href="#whiteSq" x="150" y="100"/>
    <use href="#blackSq" x="175" y="100"/>
    <!-- Row 5 -->
    <use href="#blackSq" x="0"   y="125"/>
    <use href="#whiteSq" x="25" y="125"/>
    <use href="#blackSq" x="50" y="125"/>
    <use href="#whiteSq" x="75" y="125"/>
    <use href="#blackSq" x="100" y="125"/>
    <use href="#whiteSq" x="125" y="125"/>
    <use href="#blackSq" x="150" y="125"/>
    <use href="#whiteSq" x="175" y="125"/>
    <!-- Row 6 -->
    <use href="#whiteSq" x="0"   y="150"/>
    <use href="#blackSq" x="25" y="150"/>
    <use href="#whiteSq" x="50" y="150"/>
    <use href="#blackSq" x="75" y="150"/>
    <use href="#whiteSq" x="100" y="150"/>
    <use href="#blackSq" x="125" y="150"/>
    <use href="#whiteSq" x="150" y="150"/>
    <use href="#blackSq" x="175" y="150"/>
    <!-- Row 7 -->
    <use href="#blackSq" x="0"   y="175"/>
    <use href="#whiteSq" x="25" y="175"/>
    <use href="#blackSq" x="50" y="175"/>
    <use href="#whiteSq" x="75" y="175"/>
    <use href="#blackSq" x="100" y="175"/>
    <use href="#whiteSq" x="125" y="175"/>
    <use href="#blackSq" x="150" y="175"/>
    <use href="#whiteSq" x="175" y="175"/>
  </g>
  <!-- Optional: a simple shadow under the board for depth -->
  <ellipse cx="250" cy="460" rx="130" ry="15" fill="#000" opacity="0.2"/>
</svg>