<svg xmlns="http://www.w3.org/2000/svg" viewBox="0 0 800 600" width="100%" height="auto">
    <defs>
        <!-- Background Sky Gradient -->
        <linearGradient id="skyGrad" x1="0%" y1="0%" x2="0%" y2="100%">
            <stop offset="0%" stop-color="#a0e9ff" />
            <stop offset="100%" stop-color="#c1f4c5" />
        </linearGradient>
        <!-- Duck Body Gradient -->
        <radialGradient id="duckGrad" cx="40%" cy="30%" r="60%">
            <stop offset="0%" stop-color="#ffe066" />
            <stop offset="100%" stop-color="#ffb703" />
        </radialGradient>
        <!-- Duck Head Gradient -->
        <radialGradient id="headGrad" cx="35%" cy="30%" r="70%">
            <stop offset="0%" stop-color="#ffe066" />
            <stop offset="100%" stop-color="#f4a261" />
        </radialGradient>
    </defs>
    <!-- Background Layer -->
    <rect width="800" height="600" fill="url(#skyGrad)" />
    <!-- Sun -->
    <circle cx="700" cy="150" r="60" fill="#ffd166" opacity="0.8" />
    <circle cx="700" cy="150" r="80" fill="#ffd166" opacity="0.2" />
    <!-- Clouds -->
    <g fill="#ffffff" opacity="0.8">
        <circle cx="150" cy="120" r="30" />
        <circle cx="180" cy="100" r="40" />
        <circle cx="220" cy="120" r="30" />
        <rect x="150" y="120" width="70" height="30" rx="15" />
    </g>
    <g fill="#ffffff" opacity="0.6">
        <circle cx="550" cy="80" r="40" />
        <circle cx="600" cy="60" r="50" />
        <circle cx="650" cy="80" r="30" />
        <rect x="550" y="80" width="100" height="40" rx="20" />
    </g>
    <!-- Speed Lines (Background) -->
    <g stroke="#ffffff" stroke-linecap="round" opacity="0.5">
        <line x1="50" y1="200" x2="150" y2="200" stroke-width="4" />
        <line x1="100" y1="250" x2="180" y2="250" stroke-width="3" opacity="0.4" />
        <line x1="80" y1="150" x2="140" y2="150" stroke-width="5" opacity="0.6" />
        <line x1="650" y1="280" x2="750" y2="280" stroke-width="4" />
        <line x1="680" y1="320" x2="760" y2="320" stroke-width="3" opacity="0.4" />
    </g>
    <!-- Road -->
    <path d="M 0 530 L 800 530 L 800 600 L 0 600 Z" fill="#6c757d" />
    <path d="M 0 550 L 800 550" stroke="#ffd166" stroke-width="4" stroke-dasharray="20, 15" />
    <!-- ================= BICYCLE ================= -->
    <!-- Back Wheel -->
    <g>
        <circle cx="200" cy="450" r="80" fill="none" stroke="#2b2d42" stroke-width="12" />
        <circle cx="200" cy="450" r="70" fill="none" stroke="#a8dadc" stroke-width="2" stroke-dasharray="10, 5" />
        <!-- Spokes -->
        <g stroke="#a8dadc" stroke-width="2">
            <line x1="200" y1="370" x2="200" y2="530" />
            <line x1="120" y1="450" x2="280" y2="450" />
            <line x1="143" y1="393" x2="257" y2="507" />
            <line x1="257" y1="393" x2="143" y2="507" />
        </g>
        <circle cx="200" cy="450" r="10" fill="#e63946" />
        <circle cx="200" cy="450" r="74" fill="none" stroke="#ffffff" stroke-width="4" stroke-dasharray="10, 30" opacity="0.4" />
    </g>
    <!-- Front Wheel -->
    <g>
        <circle cx="600" cy="450" r="80" fill="none" stroke="#2b2d42" stroke-width="12" />
        <circle cx="600" cy="450" r="70" fill="none" stroke="#a8dadc" stroke-width="2" stroke-dasharray="10, 5" />
        <!-- Spokes -->
        <g stroke="#a8dadc" stroke-width="2">
            <line x1="600" y1="370" x2="600" y2="530" />
            <line x1="520" y1="450" x2="680" y2="450" />
            <line x1="543" y1="393" x2="657" y2="507" />
            <line x1="657" y1="393" x2="543" y2="507" />
        </g>
        <circle cx="600" cy="450" r="10" fill="#e63946" />
        <circle cx="600" cy="450" r="74" fill="none" stroke="#ffffff" stroke-width="4" stroke-dasharray="10, 30" opacity="0.4" />
    </g>
    <!-- Chain &amp; Gears -->
    <g>
        <circle cx="400" cy="450" r="30" fill="none" stroke="#a8dadc" stroke-width="6" />
        <circle cx="200" cy="450" r="15" fill="none" stroke="#a8dadc" stroke-width="6" />
        <!-- Chain links -->
        <line x1="200" y1="435" x2="400" y2="420" stroke="#a8dadc" stroke-width="4" stroke-dasharray="4, 2" />
        <line x1="200" y1="465" x2="400" y2="480" stroke="#a8dadc" stroke-width="4" stroke-dasharray="4, 2" />
    </g>
    <!-- Bike Frame -->
    <g stroke="#1d3557" stroke-linecap="round" stroke-linejoin="round" fill="none">
        <!-- Chainstay -->
        <line x1="200" y1="450" x2="400" y2="450" stroke-width="12" />
        <!-- Seatstay -->
        <line x1="200" y1="450" x2="300" y2="320" stroke-width="12" />
        <!-- Seat tube -->
        <line x1="300" y1="320" x2="400" y2="450" stroke-width="16" />
        <!-- Down tube -->
        <line x1="400" y1="450" x2="550" y2="320" stroke-width="16" />
        <!-- Top tube -->
        <line x1="300" y1="320" x2="550" y2="320" stroke-width="16" />
        <!-- Fork -->
        <line x1="550" y1="320" x2="600" y2="450" stroke-width="14" />
        <!-- Stem -->
        <line x1="550" y1="320" x2="530" y2="290" stroke-width="12" />
    </g>
    <!-- Top Tube Highlight -->
    <line x1="305" y1="315" x2="545" y2="315" stroke="#ffffff" stroke-width="3" stroke-linecap="round" opacity="0.3" />
    <!-- Seat -->
    <g>
        <ellipse cx="300" cy="330" rx="30" ry="10" fill="#1d3557" opacity="0.5" />
        <path d="M 270 320 Q 300 300 330 320 Q 330 330 300 330 Q 270 330 270 320" fill="#1d3557" />
    </g>
    <!-- Handlebars -->
    <g>
        <path d="M 530 290 Q 560 270 570 300" fill="none" stroke="#1d3557" stroke-width="12" stroke-linecap="round" />
        <path d="M 565 295 L 575 310" fill="none" stroke="#e63946" stroke-width="14" stroke-linecap="round" />
    </g>
    <!-- Crank &amp; Pedals -->
    <g>
        <circle cx="400" cy="450" r="20" fill="#a8dadc" stroke="#1d3557" stroke-width="6" />
        <!-- Crank Arms -->
        <line x1="400" y1="450" x2="370" y2="410" stroke="#1d3557" stroke-width="10" stroke-linecap="round" />
        <line x1="400" y1="450" x2="430" y2="490" stroke="#1d3557" stroke-width="10" stroke-linecap="round" />
        <!-- Pedal Bases -->
        <rect x="355" y="405" width="30" height="10" rx="3" fill="#e63946" transform="rotate(-15 370 410)" />
        <rect x="415" y="485" width="30" height="10" rx="3" fill="#e63946" transform="rotate(15 430 490)" />
    </g>
    <!-- ================= DUCK ================= -->
    <!-- Duck Tail -->
    <g>
        <path d="M 260 250 Q 210 230 220 270 Q 230 290 270 300" fill="url(#duckGrad)" stroke="#ffb703" stroke-width="3" stroke-linecap="round" />
        <path d="M 230 250 L 220 240 M 225 265 L 210 260" stroke="#e85d04" stroke-width="3" stroke-linecap="round" />
    </g>
    <!-- Duck Legs &amp; Feet -->
    <g>
        <!-- Back Leg -->
        <path d="M 300 330 Q 320 370 370 410" fill="none" stroke="#f4a261" stroke-width="12" stroke-linecap="round" />
        <!-- Front Leg -->
        <path d="M 350 330 Q 360 400 430 490" fill="none" stroke="#f4a261" stroke-width="12" stroke-linecap="round" />
        <!-- Back Foot (Webbed) -->
        <g transform="translate(370, 410) rotate(-45)">
            <ellipse cx="0" cy="15" rx="8" ry="15" fill="#f4a261" />
            <ellipse cx="-10" cy="10" rx="6" ry="12" fill="#f4a261" />
            <ellipse cx="10" cy="10" rx="6" ry="12" fill="#f4a261" />
        </g>
        <!-- Front Foot (Webbed) -->
        <g transform="translate(430, 490) rotate(-15)">
            <ellipse cx="0" cy="15" rx="8" ry="15" fill="#f4a261" />
            <ellipse cx="-10" cy="10" rx="6" ry="12" fill="#f4a261" />
            <ellipse cx="10" cy="10" rx="6" ry="12" fill="#f4a261" />
        </g>
    </g>
    <!-- Duck Body -->
    <g>
        <ellipse cx="320" cy="270" rx="80" ry="70" fill="url(#duckGrad)" />
        <!-- Body Highlight -->
        <ellipse cx="300" cy="245" rx="30" ry="15" fill="#ffffff" opacity="0.3" transform="rotate(-30 300 245)" />
    </g>
    <!-- Duck Neck -->
    <path d="M 350 230 Q 370 180 380 150 L 420 160 Q 390 220 380 280 Z" fill="url(#duckGrad)" />
    <!-- Duck Head -->
    <g>
        <circle cx="420" cy="140" r="50" fill="url(#headGrad)" />
        <!-- Head Highlight -->
        <ellipse cx="405" cy="120" rx="15" ry="8" fill="#ffffff" opacity="0.3" transform="rotate(-20 405 120)" />
    </g>
    <!-- Feather Tuft (sticking out from helmet) -->
    <g>
        <path d="M 375 105 Q 360 90 365 80" fill="none" stroke="#ffd166" stroke-width="4" stroke-linecap="round" />
        <path d="M 370 105 Q 350 100 345 90" fill="none" stroke="#ffd166" stroke-width="4" stroke-linecap="round" />
    </g>
    <!-- Duck Face -->
    <g>
        <!-- Eye -->
        <circle cx="440" cy="125" r="6" fill="#000000" />
        <circle cx="442" cy="123" r="2" fill="#ffffff" />
        <!-- Blush -->
        <ellipse cx="425" cy="155" rx="8" ry="4" fill="#ff4d6d" opacity="0.6" />
        <!-- Upper Beak -->
        <path d="M 465 130 C 490 125, 510 140, 510 150 C 490 150, 470 145, 460 140 Z" fill="#f4a261" />
        <!-- Lower Beak -->
        <path d="M 465 145 C 480 155, 490 160, 495 165 C 480 170, 465 160, 460 155 Z" fill="#e76f51" />
        <!-- Beak Separation Line -->
        <path d="M 460 140 C 470 145, 490 145, 510 150" fill="none" stroke="#d00000" stroke-width="2" />
        <!-- Happy Mouth Line -->
        <path d="M 465 155 C 475 160, 485 160, 490 162" fill="none" stroke="#d00000" stroke-width="2" />
    </g>
    <!-- Cycling Helmet -->
    <g>
        <!-- Helmet Dome -->
        <path d="M 368 110 A 52 52 0 0 1 472 110 Z" fill="#e63946" />
        <path d="M 365 110 L 475 110" stroke="#1d3557" stroke-width="4" stroke-linecap="round" />
        <!-- Helmet Vents -->
        <g stroke="#1d3557" stroke-width="3" stroke-linecap="round">
            <line x1="390" y1="95" x2="390" y2="110" />
            <line x1="420" y1="90" x2="420" y2="110" />
            <line x1="450" y1="95" x2="450" y2="110" />
        </g>
        <!-- Helmet Strap -->
        <path d="M 375 110 Q 380 150 410 160" fill="none" stroke="#1d3557" stroke-width="3" />
    </g>
    <!-- Scarf (Wind effect) -->
    <g>
        <!-- Scarf Wrap -->
        <path d="M 370 180 C 390 190, 400 210, 380 220 C 360 215, 340 200, 350 180 Z" fill="#e63946" />
        <!-- Scarf Tail 1 -->
        <path d="M 375 215 C 300 240, 240 180, 180 220" fill="none" stroke="#e63946" stroke-width="15" stroke-linecap="round" />
        <!-- Scarf Tail 2 -->
        <path d="M 370 210 C 300 260, 220 210, 150 250" fill="none" stroke="#e63946" stroke-width="10" stroke-linecap="round" />
        <!-- Scarf Stripes -->
        <g stroke="#ffb703" stroke-width="4" stroke-linecap="round">
            <line x1="300" y1="230" x2="290" y2="215" />
            <line x1="240" y1="210" x2="230" y2="195" />
            <line x1="190" y1="220" x2="180" y2="210" />
            <line x1="260" y1="240" x2="250" y2="225" />
            <line x1="200" y1="235" x2="190" y2="220" />
        </g>
    </g>
    <!-- Duck Wing (Holding Handlebar) -->
    <g>
        <!-- Main Wing -->
        <path d="M 360 250 Q 460 270 565 300 Q 460 320 370 300" fill="#ffb703" stroke="#e85d04" stroke-width="4" stroke-linecap="round" stroke-linejoin="round" />
        <!-- Wing Feathers Details -->
        <g stroke="#e85d04" stroke-width="3" stroke-linecap="round">
            <path d="M 450 290 L 460 300" />
            <path d="M 480 295 L 490 305" />
            <path d="M 510 300 L 520 310" />
        </g>
        <!-- Wing "Hand" wrapping around the handlebar -->
        <path d="M 560 295 Q 570 310 565 315" fill="none" stroke="#ffb703" stroke-width="6" stroke-linecap="round" />
        <path d="M 565 300 Q 575 315 570 320" fill="none" stroke="#ffb703" stroke-width="6" stroke-linecap="round" />
    </g>
</svg>