<svg xmlns="http://www.w3.org/2000/svg" viewBox="0 0 800 600" width="100%" height="auto">
    <defs>
        <!-- Sky Gradient -->
        <linearGradient id="skyGrad" x1="0%" y1="0%" x2="0%" y2="100%">
            <stop offset="0%" stop-color="#4a90e2" />
            <stop offset="100%" stop-color="#a0c8f0" />
        </linearGradient>
        
        <!-- Ground Gradient -->
        <linearGradient id="groundGrad" x1="0%" y1="0%" x2="0%" y2="100%">
            <stop offset="0%" stop-color="#7ec850" />
            <stop offset="100%" stop-color="#4a8c2a" />
        </linearGradient>

        <!-- Cloud Shape -->
        <g id="cloud" fill="#ffffff" opacity="0.8">
            <circle cx="0" cy="0" r="30" />
            <circle cx="40" cy="-10" r="40" />
            <circle cx="80" cy="5" r="25" />
            <circle cx="110" cy="15" r="20" />
            <circle cx="-20" cy="10" r="20" />
            <rect x="-20" y="0" width="130" height="35" rx="17.5" />
        </g>

        <!-- Parachute Canopy Clip Path -->
        <clipPath id="canopyClip">
            <path d="M -120,0 
                     Q -100,-20 -80,0 
                     Q -60,-20 -40,0 
                     Q -20,-20 0,0 
                     Q 20,-20 40,0 
                     Q 60,-20 80,0 
                     Q 100,-20 120,0 
                     Q 0,-150 -120,0 Z" />
        </clipPath>
    </defs>

    <!-- Sky Background -->
    <rect width="800" height="600" fill="url(#skyGrad)" />

    <!-- Clouds -->
    <use href="#cloud" x="50" y="50" transform="scale(0.5)" opacity="0.5" />
    <use href="#cloud" x="250" y="180" transform="scale(0.7)" opacity="0.6" />
    <use href="#cloud" x="550" y="100" transform="scale(0.8)" opacity="0.5" />
    <use href="#cloud" x="700" y="250" transform="scale(0.6)" opacity="0.7" />
    <use href="#cloud" x="100" y="300" transform="scale(0.9)" opacity="0.8" />
    <use href="#cloud" x="600" y="350" transform="scale(0.7)" opacity="0.6" />

    <!-- Ground -->
    <rect y="500" width="800" height="100" fill="url(#groundGrad)" />
    
    <!-- Ground Hills -->
    <ellipse cx="200" cy="500" rx="300" ry="40" fill="#6ab04c" />
    <ellipse cx="600" cy="500" rx="400" ry="50" fill="#5a9e3a" />

    <!-- Target on Ground -->
    <g id="target" transform="translate(500, 520)">
        <circle cx="0" cy="0" r="45" fill="none" stroke="#ffffff" stroke-width="4" />
        <circle cx="0" cy="0" r="40" fill="#e74c3c" />
        <circle cx="0" cy="0" r="30" fill="#ffffff" />
        <circle cx="0" cy="0" r="20" fill="#e74c3c" />
        <circle cx="0" cy="0" r="10" fill="#ffffff" />
        <circle cx="0" cy="0" r="5" fill="#e74c3c" />
    </g>

    <!-- Trees / Bushes -->
    <g id="trees" fill="#27ae60">
        <!-- Left Trees -->
        <circle cx="300" cy="510" r="20" />
        <circle cx="320" cy="520" r="15" />
        <circle cx="280" cy="520" r="15" />
        <!-- Right Trees -->
        <circle cx="600" cy="510" r="20" />
        <circle cx="620" cy="520" r="15" />
        <circle cx="580" cy="520" r="15" />
    </g>

    <!-- Jump Trajectory -->
    <path d="M 200,120 Q 300,200 400,350" fill="none" stroke="#ffffff" stroke-width="3" stroke-dasharray="8,8" opacity="0.6" />

    <!-- Jump Smoke -->
    <g id="jump-smoke" transform="translate(180, 120)" fill="#ffffff" opacity="0.7">
        <circle cx="0" cy="0" r="15" />
        <circle cx="15" cy="-5" r="20" />
        <circle cx="30" cy="5" r="15" />
        <circle cx="10" cy="15" r="18" />
    </g>

    <!-- Plane -->
    <g id="plane" transform="translate(150, 100) scale(0.8)">
        <!-- Body -->
        <path d="M 0,0 L 120,0 L 130,15 L 120,30 L 0,30 Z" fill="#e74c3c" />
        <!-- Body Highlight -->
        <path d="M 0,0 L 120,0 L 110,5 L 0,5 Z" fill="#f1948a" opacity="0.5" />
        <!-- Tail -->
        <path d="M 0,0 L -30,-20 L -20,0 Z" fill="#c0392b" />
        <path d="M 0,30 L -30,50 L -20,30 Z" fill="#c0392b" />
        <!-- Wings -->
        <path d="M 40,0 L 20,-40 L 80,-40 L 100,0 Z" fill="#f1c40f" />
        <path d="M 40,30 L 20,70 L 80,70 L 100,30 Z" fill="#f1c40f" />
        <!-- Wing Struts -->
        <line x1="30" y1="0" x2="30" y2="-40" stroke="#c0392b" stroke-width="2" />
        <line x1="70" y1="0" x2="70" y2="-40" stroke="#c0392b" stroke-width="2" />
        <line x1="30" y1="30" x2="30" y2="70" stroke="#c0392b" stroke-width="2" />
        <line x1="70" y1="30" x2="70" y2="70" stroke="#c0392b" stroke-width="2" />
        <!-- Propeller -->
        <ellipse cx="130" cy="15" rx="5" ry="25" fill="#34495e" />
        <!-- Propeller Blur (motion) -->
        <ellipse cx="130" cy="15" rx="15" ry="5" fill="#95a5a6" opacity="0.5" />
        <!-- Cockpit -->
        <ellipse cx="100" cy="15" rx="15" ry="10" fill="#ecf0f1" />
        <!-- Pilot Silhouette -->
        <circle cx="100" cy="15" r="5" fill="#2c3e50" />
        <!-- Plane Stripes -->
        <path d="M 20,0 L 30,0 L 30,30 L 20,30 Z" fill="#c0392b" />
        <path d="M 60,0 L 70,0 L 70,30 L 60,30 Z" fill="#c0392b" />
    </g>

    <!-- Wind / Motion Lines -->
    <g stroke="#ffffff" stroke-width="2" opacity="0.4" stroke-linecap="round">
        <line x1="330" y1="300" x2="330" y2="330" />
        <line x1="470" y1="320" x2="470" y2="360" />
        <line x1="350" y1="380" x2="350" y2="420" />
        <line x1="450" y1="400" x2="450" y2="440" />
        <line x1="380" y1="280" x2="380" y2="300" />
        <line x1="420" y1="290" x2="420" y2="310" />
    </g>

    <!-- Parachute -->
    <g id="parachute" transform="translate(400, 200)">
        <!-- Canopy -->
        <g clip-path="url(#canopyClip)">
            <!-- Red Base -->
            <rect x="-120" y="-150" width="240" height="150" fill="#e74c3c" />
            <!-- White Stripes -->
            <rect x="-72" y="-150" width="48" height="150" fill="#ffffff" />
            <rect x="24" y="-150" width="48" height="150" fill="#ffffff" />
        </g>
        
        <!-- Canopy Seams (Radiating lines) -->
        <g stroke="#c0392b" stroke-width="1.5" opacity="0.4">
            <line x1="-120" y1="0" x2="0" y2="-150" />
            <line x1="-80" y1="0" x2="0" y2="-150" />
            <line x1="-40" y1="0" x2="0" y2="-150" />
            <line x1="0" y1="0" x2="0" y2="-150" />
            <line x1="40" y1="0" x2="0" y2="-150" />
            <line x1="80" y1="0" x2="0" y2="-150" />
            <line x1="120" y1="0" x2="0" y2="-150" />
        </g>

        <!-- Parachute Strings -->
        <g stroke="#555" stroke-width="2">
            <line x1="-100" y1="0" x2="-25" y2="150" />
            <line x1="-50" y1="0" x2="-10" y2="150" />
            <line x1="0" y1="0" x2="0" y2="150" />
            <line x1="50" y1="0" x2="10" y2="150" />
            <line x1="100" y1="0" x2="25" y2="150" />
        </g>
    </g>

    <!-- Duck -->
    <g id="duck-group" transform="translate(400, 350)">
        <!-- Harness -->
        <path d="M -25,-15 L 25,-15 L 25,25 L -25,25 Z" fill="none" stroke="#555" stroke-width="3" stroke-linejoin="round" />
        
        <!-- Duck Body (Rotated slightly to look down) -->
        <g transform="rotate(15)">
            <!-- Body -->
            <path d="M -30,0 C -40,-20 -20,-35 0,-35 C 20,-35 40,-20 30,0 C 40,10 30,30 0,30 C -30,30 -40,10 -30,0 Z" fill="#f1c40f" />
            <!-- Head -->
            <circle cx="30" cy="-30" r="18" fill="#f1c40f" />
            <!-- Head Highlight -->
            <circle cx="25" cy="-35" r="5" fill="#ffffff" opacity="0.5" />
            <!-- Beak -->
            <path d="M 45,-35 L 65,-25 L 45,-15 Z" fill="#e67e22" />
            <!-- Mouth -->
            <path d="M 50,-25 L 60,-25" stroke="#000" stroke-width="2" />
            <!-- Eye -->
            <circle cx="38" cy="-32" r="3" fill="#000" />
            <!-- Wing -->
            <path d="M -10,-10 Q -40,-40 -20,-50 Q 0,-30 -10,-10" fill="#f39c12" />
            <!-- Tail -->
            <path d="M -30,0 L -50,-10 L -45,10 Z" fill="#f39c12" />
            <!-- Feet -->
            <path d="M -15,25 L -20,45 L -10,45 L -5,25" fill="#e67e22" />
            <path d="M 15,25 L 10,45 L 20,45 L 25,25" fill="#e67e22" />
            <!-- Sweat Drop (Funny detail) -->
            <path d="M 50,-40 Q 55,-50 60,-40 Q 55,-35 50,-40 Z" fill="#3498db" />
        </g>
    </g>
</svg>