<svg xmlns="http://www.w3.org/2000/svg" viewBox="0 0 800 600" width="100%" height="auto">
  <!-- Background gradient -->
  <defs>
    <linearGradient id="bgGrad" x1="0%" y1="0%" x2="100%" y2="100%">
      <stop offset="0%" style="stop-color:#1a2980;stop-opacity:1" />
      <stop offset="50%" style="stop-color:#26d0ce;stop-opacity:1" />
      <stop offset="100%" style="stop-color:#1a2980;stop-opacity:1" />
    </linearGradient>
    <linearGradient id="trophyGrad" x1="0%" y1="0%" x2="0%" y2="100%">
      <stop offset="0%" style="stop-color:#FFD700;stop-opacity:1" />
      <stop offset="50%" style="stop-color:#FFA500;stop-opacity:1" />
      <stop offset="100%" style="stop-color:#B8860B;stop-opacity:1" />
    </linearGradient>
    <linearGradient id="ballGrad" x1="0%" y1="0%" x2="100%" y2="100%">
      <stop offset="0%" style="stop-color:#ffffff;stop-opacity:1" />
      <stop offset="100%" style="stop-color:#cccccc;stop-opacity:1" />
    </linearGradient>
    <radialGradient id="glow" cx="50%" cy="50%" r="50%">
      <stop offset="0%" style="stop-color:#FFD700;stop-opacity:0.8" />
      <stop offset="100%" style="stop-color:#FFD700;stop-opacity:0" />
    </radialGradient>
  </defs>
  <!-- Background -->
  <rect width="800" height="600" fill="url(#bgGrad)"/>
  <!-- Background stars/decorative elements -->
  <g opacity="0.3">
    <circle cx="100" cy="80" r="2" fill="white"/>
    <circle cx="200" cy="150" r="1.5" fill="white"/>
    <circle cx="300" cy="50" r="2" fill="white"/>
    <circle cx="500" cy="100" r="1.5" fill="white"/>
    <circle cx="650" cy="60" r="2" fill="white"/>
    <circle cx="750" cy="130" r="1.5" fill="white"/>
    <circle cx="80" cy="450" r="2" fill="white"/>
    <circle cx="180" cy="500" r="1.5" fill="white"/>
    <circle cx="720" cy="480" r="2" fill="white"/>
    <circle cx="600" cy="520" r="1.5" fill="white"/>
  </g>
  <!-- Glow effect behind trophy -->
  <ellipse cx="400" cy="320" rx="200" ry="180" fill="url(#glow)"/>
  <!-- FIFA WORLD CUP Text -->
  <text x="400" y="60" font-family="Arial, sans-serif" font-size="36" font-weight="bold" fill="white" text-anchor="middle" letter-spacing="4">FIFA WORLD CUP</text>
  <!-- 2026 Big Text -->
  <text x="400" y="520" font-family="Arial Black, sans-serif" font-size="72" font-weight="bold" fill="url(#trophyGrad)" text-anchor="middle" letter-spacing="6" stroke="#8B6914" stroke-width="1">2026</text>
  <!-- Trophy - Base/Stand -->
  <rect x="350" y="440" width="100" height="15" fill="#8B6914" stroke="#5C4A0A" stroke-width="1"/>
  <rect x="360" y="455" width="80" height="25" fill="#A0821C" stroke="#5C4A0A" stroke-width="1"/>
  <!-- Trophy - Stem -->
  <path d="M 380 455 Q 400 445 420 455 L 415 410 L 385 410 Z" fill="url(#trophyGrad)" stroke="#8B6914" stroke-width="1"/>
  <!-- Trophy - Globe (bottom sphere) -->
  <ellipse cx="400" cy="395" rx="45" ry="35" fill="url(#trophyGrad)" stroke="#8B6914" stroke-width="2"/>
  <!-- Trophy - Globe lines (continent patterns) -->
  <g stroke="#8B6914" stroke-width="1" fill="none" opacity="0.6">
    <ellipse cx="400" cy="395" rx="45" ry="15"/>
    <ellipse cx="400" cy="395" rx="20" ry="35"/>
    <line x1="355" y1="395" x2="445" y2="395"/>
    <path d="M 370 380 Q 385 385 400 380 Q 415 385 430 380"/>
    <path d="M 365 410 Q 385 415 400 410 Q 415 415 435 410"/>
  </g>
  <!-- Trophy - Bowl/Top portion -->
  <path d="M 355 360 Q 355 290 400 270 Q 445 290 445 360 Z" fill="url(#trophyGrad)" stroke="#8B6914" stroke-width="2"/>
  <!-- Trophy - Handles (two curved arms) -->
  <path d="M 355 295 Q 320 295 320 330 Q 320 355 345 360" fill="none" stroke="url(#trophyGrad)" stroke-width="8" stroke-linecap="round"/>
  <path d="M 445 295 Q 480 295 480 330 Q 480 355 455 360" fill="none" stroke="url(#trophyGrad)" stroke-width="8" stroke-linecap="round"/>
  <!-- Trophy - Top figures (decorative) -->
  <path d="M 385 270 Q 400 250 415 270" fill="none" stroke="#FFD700" stroke-width="3"/>
  <circle cx="400" cy="255" r="5" fill="#FFD700"/>
  <!-- Football/Soccer Ball on left -->
  <g transform="translate(150, 380)">
    <circle cx="0" cy="0" r="60" fill="url(#ballGrad)" stroke="#333" stroke-width="2"/>
    <!-- Pentagon pattern -->
    <polygon points="0,-25 23,-8 14,22 -14,22 -23,-8" fill="#333" stroke="#222" stroke-width="1"/>
    <!-- Surrounding lines -->
    <path d="M 0 -25 L -23 -8 L -45 -20" fill="none" stroke="#333" stroke-width="2"/>
    <path d="M 0 -25 L 23 -8 L 45 -20" fill="none" stroke="#333" stroke-width="2"/>
    <path d="M 14 22 L 35 35" fill="none" stroke="#333" stroke-width="2"/>
    <path d="M -14 22 L -35 35" fill="none" stroke="#333" stroke-width="2"/>
    <!-- Highlight -->
    <ellipse cx="-15" cy="-20" rx="15" ry="10" fill="white" opacity="0.5"/>
  </g>
  <!-- Football/Soccer Ball on right -->
  <g transform="translate(650, 380)">
    <circle cx="0" cy="0" r="50" fill="url(#ballGrad)" stroke="#333" stroke-width="2"/>
    <polygon points="0,-20 19,-6 11,17 -11,17 -19,-6" fill="#333" stroke="#222" stroke-width="1"/>
    <path d="M 0 -20 L -19 -6 L -37 -16" fill="none" stroke="#333" stroke-width="2"/>
    <path d="M 0 -20 L 19 -6 L 37 -16" fill="none" stroke="#333" stroke-width="2"/>
    <ellipse cx="-12" cy="-15" rx="12" ry="8" fill="white" opacity="0.5"/>
  </g>
  <!-- Host Countries flags/banners -->
  <g transform="translate(400, 540)">
    <!-- USA Flag -->
    <rect x="-150" y="20" width="40" height="25" fill="#B22234" stroke="white" stroke-width="1"/>
    <rect x="-150" y="23" width="40" height="2" fill="white"/>
    <rect x="-150" y="28" width="40" height="2" fill="white"/>
    <rect x="-150" y="33" width="40" height="2" fill="white"/>
    <rect x="-150" y="38" width="40" height="2" fill="white"/>
    <rect x="-150" y="20" width="18" height="13" fill="#3C3B6E"/>
    <!-- Canada Flag -->
    <rect x="-50" y="20" width="40" height="25" fill="white" stroke="#ccc" stroke-width="1"/>
    <rect x="-50" y="20" width="10" height="25" fill="#FF0000"/>
    <rect x="-20" y="20" width="10" height="25" fill="#FF0000"/>
    <path d="M -35 28 L -32 33 L -28 30 L -31 36 L -28 38 L -33 39 L -30 42 L -35 40 L -37 42 L -38 38 L -42 38 L -39 34 L -42 30 L -38 33 Z" fill="#FF0000"/>
    <!-- Mexico Flag -->
    <rect x="50" y="20" width="40" height="25" stroke="#ccc" stroke-width="1"/>
    <rect x="50" y="20" width="13" height="25" fill="#006847"/>
    <rect x="63" y="20" width="14" height="25" fill="white"/>
    <rect x="77" y="20" width="13" height="25" fill="#CE1126"/>
    <ellipse cx="70" cy="32" rx="4" ry="3" fill="#8B4513" opacity="0.6"/>
  </g>
  <!-- Host Countries Labels -->
  <text x="280" y="575" font-family="Arial, sans-serif" font-size="14" font-weight="bold" fill="white" text-anchor="middle">USA</text>
  <text x="380" y="575" font-family="Arial, sans-serif" font-size="14" font-weight="bold" fill="white" text-anchor="middle">CANADA</text>
  <text x="480" y="575" font-family="Arial, sans-serif" font-size="14" font-weight="bold" fill="white" text-anchor="middle">MEXICO</text>
  <!-- Connecting lines between flags -->
  <line x1="300" y1="530" x2="460" y2="530" stroke="white" stroke-width="1" opacity="0.5" stroke-dasharray="3,3"/>
  <!-- Decorative laurel/leaf elements -->
  <g transform="translate(400, 320)">
    <path d="M -120 0 Q -140 -30 -130 -60 Q -110 -50 -100 -20 Z" fill="#2E7D32" opacity="0.7"/>
    <path d="M 120 0 Q 140 -30 130 -60 Q 110 -50 100 -20 Z" fill="#2E7D32" opacity="0.7"/>
    <path d="M -110 10 Q -125 -10 -115 -35 Q -100 -25 -95 0 Z" fill="#388E3C" opacity="0.7"/>
    <path d="M 110 10 Q 125 -10 115 -35 Q 100 -25 95 0 Z" fill="#388E3C" opacity="0.7"/>
  </g>
  <!-- Bottom tagline -->
  <text x="400" y="590" font-family="Arial, sans-serif" font-size="12" fill="white" text-anchor="middle" letter-spacing="2" opacity="0.8">THE GREATEST SHOW ON EARTH</text>
</svg>