<svg viewBox="0 0 300 300" xmlns="http://www.w3.org/2000/svg" width="100%" height="auto">
  <!-- Background (transparent) -->
  <!-- Central Symbol: Three interlocking arcs representing USA, Canada, Mexico unity -->
  <path d="M150 50 
           C100 0, 50 100, 150 150 
           C250 100, 200 0, 150 50Z"
        fill="none" stroke="#002B5C" stroke-width="12" stroke-linecap="round"/>
  <path d="M150 250 
           C100 300, 50 200, 150 150 
           C250 200, 200 300, 150 250Z"
        fill="none" stroke="#002B5C" stroke-width="12" stroke-linecap="round"/>
  <path d="M50 150 
           C0 100, 100 50, 150 150 
           C200 50, 300 100, 250 150Z"
        fill="none" stroke="#002B5C" stroke-width="12" stroke-linecap="round"/>
  <!-- Football texture hint (subtle pentagons) -->
  <g fill="#002B5C" opacity="0.08">
    <polygon points="140,110 150,95 160,110 155,120 145,1205,120"/>
    <polygon points="140,190 150,205 160,190 155,180 145,180"/>
    <polygon points="95,140 110,150 95,160 80,150"/>
    <polygon points="205,140 190,150 205,160 220,150"/>
  </g>
  <!-- "2026" Text -->
  <text x="150" y="210" 
        font-family="Arial, Helvetica, sans-serif" 
        font-size="48" 
        font-weight="bold" 
        fill="#002B5C" 
        text-anchor="middle">2026</text>
  <!-- Subtle Laurel Wreath Hint (modern, minimal) -->
  <path d="M80 180 
           Q70 160, 80 140 
           Q90 120, 110 120 
           Q130 120, 140 140 
           Q150 160, 140 180"
        fill="none" stroke="#002B5C" stroke-width="3" opacity="0.3"/>
  <path d="M220 180 
           Q230 160, 220 140 
           Q210 120, 190 120 
           Q170 120, 180 140 
           Q170 160, 180 180"
        fill="none" stroke="#002B5C" stroke-width="3" opacity="0.3"/>
</svg>