<svg xmlns="http://www.w3.org/2000/svg" viewBox="0 0 600 400" width="100%" height="auto">
  <!-- Background: Sky and Grass -->
  <rect fill="#87CEEB" />
  <rect x="0" y="300" fill="#7CFC00" />
  
  <!-- Clouds -->
  <path d="M100,80 Q120,50 150,80 T200,80 T250,80" fill="none" stroke="white" stroke-width="5" stroke-linecap="round" opacity="0.8"/>
  <path d="M400,60 Q420,30 450,60 T500,60" fill="none" stroke="white" stroke-width="5" stroke-linecap="round" opacity="0.8"/>

  <!-- Jeep Group -->
  <g transform="translate(100, 100)">
    
    <!-- Jeep Wheels (Back) -->
    <circle cx="80" cy="200" r="35" fill="#333" />
    <circle cx="80" cy="200" r="15" fill="#AAA" /> <!-- Hub -->
    
    <circle cx="320" cy="200" r="35" fill="#333" />
    <circle cx="320" cy="200" r="15" fill="#AAA" /> <!-- Hub -->

    <!-- Spare Tire on back -->
    <circle cx="20" cy="120" r="25" fill="#333" />
    <circle cx="20" cy="120" r="10" fill="#AAA" />
    
    <!-- Jeep Body -->
    <!-- Main chassis and cabin shape -->
    <path d="M10,180 L10,100 L150,100 L200,20 L360,20 L400,100 L410,100 L410,180 L380,180 L380,210 L360,210 L360,180 L140,180 L140,210 L120,210 L120,180 Z" fill="#4CAF50" stroke="#2E7D32" stroke-width="3"/>
    
    <!-- Wheel Wells -->
    <path d="M60,180 A40,40 0 0,1 100,180" fill="#388E3C" />
    <path d="M300,180 A40,40 0 0,1 340,180" fill="#388E3C" />

    <!-- Windshield and Side Window -->
    <path d="M145,100 L195,25 L350,25 L370,100 Z" fill="#B3E5FC" stroke="#0288D1" stroke-width="2"/>
    <line x1="300" y1="25" x2="300" y2="100" stroke="#0288D1" stroke-width="2" />

    <!-- Headlight -->
    <circle cx="405" cy="110" r="8" fill="#FFEB3B" stroke="#FBC02D" stroke-width="2"/>

    <!-- Grille -->
    <line x1="400" y1="125" x2="400" y2="175" stroke="#333" stroke-width="2"/>
    <line x1="405" y1="125" x2="405" y2="175" stroke="#333" stroke-width="2"/>

    <!-- Steering Wheel -->
    <ellipse cx="260" cy="90" rx="10" ry="30" fill="none" stroke="#333" stroke-width="4" transform="rotate(-20 260 90)"/>

    <!-- The Duck -->
    <g transform="translate(220, 50)">
      <!-- Wing (reaching for wheel) -->
      <path d="M10,40 Q-10,60 20,70" fill="#FBC02D" />
      
      <!-- Body -->
      <ellipse cx="20" cy="60" rx="30" ry="40" fill="#FFD700" />
      
      <!-- Head -->
      <circle cx="30" cy="30" r="25" fill="#FFD700" />
      
      <!-- Beak -->
      <path d="M50,30 L70,35 L50,40 Z" fill="#FF9800" />
      
      <!-- Eye -->
      <circle cx="40" cy="25" r="3" fill="#000" />
      
      <!-- Cap (Optional fun detail) -->
      <path d="M15,10 Q30,-15 45,10 Z" fill="#F44336" />
      <rect x="10" y="8" width="40" height="5" fill="#F44336" />
    </g>
  </g>
</svg>