<svg xmlns="http://www.w3.org/2000/svg" viewBox="0 0 500 400" width="100%" height="auto">
  <!-- Background / Sky -->
  <rect fill="#87CEEB" />
  
  <!-- Ground -->
  <rect y="300" width="500" height="100" fill="#8FBC8F" />
  
  <!-- Road -->
  <rect y="320" width="500" height="60" fill="#555555" />
  <line x1="0" y1="350" x2="500" y2="350" stroke="#FFFFFF" stroke-width="4" stroke-dasharray="20, 20" />

  <!-- Jeep Group -->
  <g transform="translate(50, 50)">
    
    <!-- Jeep Body -->
    <path d="M20 200 L20 120 L100 120 L130 80 L320 80 L320 200 Z" fill="#556B2F" stroke="#2F4F4F" stroke-width="3"/>
    <!-- Jeep Fenders -->
    <rect x="10" y="180" width="80" height="40" rx="10" fill="#556B2F" />
    <rect x="280" y="180" width="80" height="40" rx="10" fill="#556B2F" />
    
    <!-- Windshield -->
    <path d="M140 80 L310 80 L300 160 L150 160 Z" fill="#ADD8E6" opacity="0.8" stroke="#2F4F4F" stroke-width="2"/>
    
    <!-- Steering Wheel -->
    <circle cx="240" cy="140" r="25" fill="none" stroke="#333" stroke-width="5" />
    <line x1="240" y1="115" x2="240" y2="165" stroke="#333" stroke-width="5" />

    <!-- Duck -->
    <g transform="translate(160, 100)">
      <!-- Body -->
      <ellipse cx="0" cy="60" rx="35" ry="45" fill="#FFD700" stroke="#DAA520" stroke-width="2"/>
      
      <!-- Wing (holding wheel) -->
      <path d="M10 50 Q 40 50 60 30" fill="none" stroke="#FFD700" stroke-width="12" stroke-linecap="round"/>
      <path d="M10 50 Q 40 50 60 30" fill="none" stroke="#DAA520" stroke-width="2" stroke-linecap="round"/>

      <!-- Head -->
      <circle cx="0" cy="0" r="30" fill="#FFD700" stroke="#DAA520" stroke-width="2"/>
      
      <!-- Beak -->
      <path d="M25 5 Q 45 10 25 15 Z" fill="#FF8C00" stroke="#DAA520" stroke-width="1"/>
      
      <!-- Eye -->
      <circle cx="10" cy="-5" r="4" fill="white"/>
      <circle cx="12" cy="-5" r="2" fill="black"/>
      
      <!-- Sunglasses (Cool Duck) -->
      <path d="M5 -5 L25 -5 L25 5 L5 5 Z" fill="#333" opacity="0.8"/>
      <line x1="5" y1="0" x2="-5" y2="-2" stroke="#333" stroke-width="2"/>
    </g>

    <!-- Wheels -->
    <!-- Back Wheel -->
    <g transform="translate(60, 220)">
      <circle cx="0" cy="0" r="40" fill="#333" stroke="#000" stroke-width="2"/>
      <circle cx="0" cy="0" r="25" fill="#777" stroke="#555" stroke-width="2"/>
      <circle cx="0" cy="0" r="10" fill="#CCC"/>
    </g>
    
    <!-- Front Wheel -->
    <g transform="translate(300, 220)">
      <circle cx="0" cy="0" r="40" fill="#333" stroke="#000" stroke-width="2"/>
      <circle cx="0" cy="0" r="25" fill="#777" stroke="#555" stroke-width="2"/>
      <circle cx="0" cy="0" r="10" fill="#CCC"/>
    </g>
    
    <!-- Headlight -->
    <circle cx="310" cy="130" r="8" fill="#FFFFE0" stroke="#555" stroke-width="1"/>
  </g>
  
  <!-- Motion Lines -->
  <path d="M40 330 L10 330" stroke="white" stroke-width="3" stroke-linecap="round"/>
  <path d="M50 360 L20 360" stroke="white" stroke-width="3" stroke-linecap="round"/>
  <path d="M30 250 L10 250" stroke="white" stroke-width="2" stroke-linecap="round"/>
</svg>